<?xml version="1.0" encoding="UTF-8" standalone="no"?>
<svg
   version="1.1"
   viewBox="-2057.2161 -893.95201 300.34179 99.999998"
   id="svg30"
   width="300.3418"
   height="100"
   sodipodi:docname="13100-2.svg"
   inkscape:version="1.3.2 (091e20e, 2023-11-25, custom)"
   xmlns:inkscape="http://www.inkscape.org/namespaces/inkscape"
   xmlns:sodipodi="http://sodipodi.sourceforge.net/DTD/sodipodi-0.dtd"
   xmlns="http://www.w3.org/2000/svg"
   xmlns:svg="http://www.w3.org/2000/svg">
  <sodipodi:namedview
     id="namedview1"
     pagecolor="#ffffff"
     bordercolor="#000000"
     borderopacity="0.25"
     inkscape:showpageshadow="2"
     inkscape:pageopacity="0.0"
     inkscape:pagecheckerboard="0"
     inkscape:deskcolor="#d1d1d1"
     inkscape:zoom="4.1352886"
     inkscape:cx="150.1709"
     inkscape:cy="49.936056"
     inkscape:window-width="1920"
     inkscape:window-height="1009"
     inkscape:window-x="-8"
     inkscape:window-y="-8"
     inkscape:window-maximized="1"
     inkscape:current-layer="svg30" />
  <desc
     id="desc1">Created with Snap</desc>
  <defs
     id="defs1" />
  <g
     id="g30"
     transform="matrix(0.04768371,0,0,0.04768371,-1959.1204,-851.32507)"
     style="fill:#ffffff;fill-opacity:1">
    <rect
       x="-2057.2161"
       y="-893.95203"
       width="6298.6245"
       height="2097.1521"
       style="fill:#ffffff;fill-opacity:1;image-rendering:auto"
       fill="#214f4b"
       id="rect1" />
    <g
       transform="matrix(46.336,0,0,46.336,-1750.0161,-586.752)"
       id="g25"
       style="fill:#ffffff;fill-opacity:1">
      <g
         display="none"
         id="g2"
         style="fill:#ffffff;fill-opacity:1">
        <rect
           x="-27.333"
           y="-102.661"
           display="inline"
           fill="#ffffff"
           width="473.33301"
           height="236"
           id="rect2"
           style="fill:#ffffff;fill-opacity:1" />
      </g>
      <g
         display="none"
         id="g8"
         style="fill:#ffffff;fill-opacity:1">
        <g
           display="inline"
           id="g3"
           style="fill:#ffffff;fill-opacity:1">
          <rect
             x="22.318001"
             y="13.214"
             transform="matrix(0.7071,-0.7071,0.7071,0.7071,-9.1591,22.6972)"
             fill="#ffffff"
             width="1"
             height="18.382"
             id="rect3"
             style="fill:#ffffff;fill-opacity:1" />
        </g>
        <g
           display="inline"
           id="g4"
           style="fill:#ffffff;fill-opacity:1">
          <rect
             x="0.0049999999"
             y="15.5"
             transform="matrix(0.7071,-0.7071,0.7071,0.7071,-6.6272,16.0001)"
             fill="#ffffff"
             width="31.99"
             height="1"
             id="rect4"
             style="fill:#ffffff;fill-opacity:1" />
        </g>
        <g
           display="inline"
           id="g5"
           style="fill:#ffffff;fill-opacity:1">
          <rect
             x="25.806"
             fill="#ffffff"
             width="6.1939998"
             height="6.1939998"
             id="rect5"
             y="0"
             style="fill:#ffffff;fill-opacity:1" />
        </g>
        <g
           display="inline"
           id="g6"
           style="fill:#ffffff;fill-opacity:1">
          <rect
             x="25.806"
             y="25.806"
             fill="#ffffff"
             width="6.1939998"
             height="6.1939998"
             id="rect6"
             style="fill:#ffffff;fill-opacity:1" />
        </g>
        <g
           display="inline"
           id="g7"
           style="fill:#ffffff;fill-opacity:1">
          <rect
             y="25.806"
             fill="#ffffff"
             width="6.1939998"
             height="6.1939998"
             id="rect7"
             x="0"
             style="fill:#ffffff;fill-opacity:1" />
        </g>
      </g>
      <g
         id="g14"
         style="fill:#ffffff;fill-opacity:1">
        <g
           id="g9"
           style="fill:#ffffff;fill-opacity:1">
          <rect
             x="21.014"
             y="13.754"
             transform="matrix(0.7071,-0.7071,0.7071,0.7071,-8.6193,21.3917)"
             width="1"
             height="14.694"
             fill="#ffffff"
             id="rect8"
             style="fill:#ffffff;fill-opacity:1" />
        </g>
        <g
           id="g10"
           style="fill:#ffffff;fill-opacity:1">
          <rect
             x="0.92199999"
             y="15.669"
             transform="matrix(0.7071,-0.7071,0.7071,0.7071,-6.7967,15.9298)"
             width="29.816999"
             height="1"
             fill="#ffffff"
             id="rect9"
             style="fill:#ffffff;fill-opacity:1" />
        </g>
        <g
           id="g11"
           style="fill:#ffffff;fill-opacity:1">
          <path
             d="M 31,1 V 5.194 H 26.806 V 1 H 31 M 32,0 H 25.806 V 6.194 H 32 Z"
             fill="#ffffff"
             id="path10"
             style="fill:#ffffff;fill-opacity:1" />
        </g>
        <g
           id="g12"
           style="fill:#ffffff;fill-opacity:1">
          <path
             d="M 31,26.806 V 31 H 26.806 V 26.806 H 31 m 1,-1 H 25.806 V 32 H 32 Z"
             fill="#ffffff"
             id="path11"
             style="fill:#ffffff;fill-opacity:1" />
        </g>
        <g
           id="g13"
           style="fill:#ffffff;fill-opacity:1">
          <path
             d="M 5.194,26.806 V 31 H 1 v -4.194 h 4.194 m 1,-1 H 0 V 32 h 6.194 z"
             fill="#ffffff"
             id="path12"
             style="fill:#ffffff;fill-opacity:1" />
        </g>
      </g>
      <g
         display="none"
         id="g21"
         style="fill:#ffffff;fill-opacity:1">
        <line
           display="inline"
           fill="#ffffff"
           stroke="#ffffff"
           stroke-miterlimit="10"
           x1="26.709"
           y1="26.296"
           x2="16.319"
           y2="15.906"
           id="line14"
           style="fill:#ffffff;fill-opacity:1" />
        <line
           display="inline"
           fill="#ffffff"
           stroke="#ffffff"
           stroke-miterlimit="10"
           x1="5.289"
           y1="26.711"
           x2="26.372"
           y2="5.6279998"
           id="line15"
           style="fill:#ffffff;fill-opacity:1" />
        <g
           display="inline"
           id="g16"
           style="fill:#ffffff;fill-opacity:1">
          <rect
             x="26.306999"
             y="0.5"
             fill="#ffffff"
             width="5.1929998"
             height="5.1929998"
             id="rect15"
             style="fill:#ffffff;fill-opacity:1" />
          <g
             id="g15"
             style="fill:#ffffff;fill-opacity:1">
            <path
               d="M 31,1 V 5.194 H 26.806 V 1 H 31 M 32,0 H 25.806 V 6.194 H 32 Z"
               fill="#ffffff"
               id="path15"
               style="fill:#ffffff;fill-opacity:1" />
          </g>
        </g>
        <g
           display="inline"
           id="g18"
           style="fill:#ffffff;fill-opacity:1">
          <rect
             x="26.306999"
             y="26.306"
             fill="#ffffff"
             width="5.1929998"
             height="5.1939998"
             id="rect16"
             style="fill:#ffffff;fill-opacity:1" />
          <g
             id="g17"
             style="fill:#ffffff;fill-opacity:1">
            <path
               d="M 31,26.806 V 31 H 26.806 V 26.806 H 31 m 1,-1 H 25.806 V 32 H 32 Z"
               fill="#ffffff"
               id="path16"
               style="fill:#ffffff;fill-opacity:1" />
          </g>
        </g>
        <g
           display="inline"
           id="g20"
           style="fill:#ffffff;fill-opacity:1">
          <rect
             x="0.5"
             y="26.306"
             fill="#ffffff"
             width="5.1929998"
             height="5.1939998"
             id="rect18"
             style="fill:#ffffff;fill-opacity:1" />
          <g
             id="g19"
             style="fill:#ffffff;fill-opacity:1">
            <path
               d="M 5.194,26.806 V 31 H 1 v -4.194 h 4.194 m 1,-1 H 0 V 32 h 6.194 z"
               fill="#ffffff"
               id="path18"
               style="fill:#ffffff;fill-opacity:1" />
          </g>
        </g>
      </g>
      <g
         display="none"
         id="g24"
         style="fill:#ffffff;fill-opacity:1">
        <line
           display="inline"
           fill="#ffffff"
           stroke="#ffffff"
           stroke-miterlimit="10"
           x1="26.709"
           y1="26.296"
           x2="16.319"
           y2="15.906"
           id="line21"
           style="fill:#ffffff;fill-opacity:1" />
        <line
           display="inline"
           fill="#ffffff"
           stroke="#ffffff"
           stroke-miterlimit="10"
           x1="5.289"
           y1="26.711"
           x2="26.372"
           y2="5.6279998"
           id="line22"
           style="fill:#ffffff;fill-opacity:1" />
        <rect
           x="25.806"
           display="inline"
           fill="#ffffff"
           width="6.1939998"
           height="6.1939998"
           id="rect22"
           y="0"
           style="fill:#ffffff;fill-opacity:1" />
        <rect
           x="25.806"
           y="25.806"
           display="inline"
           fill="#ffffff"
           width="6.1939998"
           height="6.1939998"
           id="rect23"
           style="fill:#ffffff;fill-opacity:1" />
        <rect
           y="25.806"
           display="inline"
           fill="#ffffff"
           width="6.1939998"
           height="6.1939998"
           id="rect24"
           x="0"
           style="fill:#ffffff;fill-opacity:1" />
      </g>
      <desc
         id="desc24">Created with Snap</desc>
      <defs
         id="defs24" />
    </g>
    <g
       id="g27"
       style="fill:#ffffff;fill-opacity:1">
      <g
         transform="scale(1.024,-1.024)"
         id="g26"
         style="fill:#ffffff;fill-opacity:1">
        <path
           d="M 499,0 H 39 v 53 h 78 V 510 H 39 v 53 H 277 V 510 H 199 V 53 h 234 v 173 h 66 z m 200,-11 q -61,0 -98,34 -37,34 -37,83 0,45 21,72 22,27 58,39 36,12 79,12 34,0 69,-6 36,-5 70,-14 l -30,-5 v 53 q 0,47 -25,69 -25,22 -68,22 -28,0 -66,-10 -37,-9 -69,-26 l -22,48 q 35,22 79,32 44,11 79,11 52,0 89,-17 37,-17 56,-49 20,-31 20,-73 V 53 h 62 V 0 H 839 l -6,56 h 28 Q 822,22 785,5 748,-11 699,-11 Z m 11,51 q 37,0 74,16 37,16 77,49 L 831,69 v 116 l 23,-18 q -26,8 -59,13 -33,5 -68,5 -35,0 -64,-16 -29,-15 -29,-59 0,-30 20,-50 20,-20 56,-20 z M 1223,0 h -220 v 53 h 76 v 287 h -76 v 53 h 149 v -54 l -28,-3 q 42,29 84,48 42,19 86,19 54,0 91,-34 38,-33 38,-97 V 53 h 73 V 0 h -211 v 53 h 65 v 205 q 0,41 -20,64 -20,23 -55,23 -36,0 -73,-16 -37,-16 -79,-44 l 29,32 V 53 h 71 z m 515,-10 q -62,0 -111,27 -48,27 -76,74 -27,47 -27,108 0,61 26,107 27,46 73,72 47,26 107,26 58,0 96,-26 38,-26 48,-64 h -14 v 81 h 62 V 254 h -56 q -9,43 -41,67 -31,25 -78,25 -43,0 -76,-19 -33,-18 -52,-51 -18,-33 -18,-75 0,-45 18,-80 19,-34 51,-54 33,-19 75,-19 53,0 85,20 33,21 60,52 l 31,-45 q -29,-38 -75,-62 -46,-23 -108,-23 z m 403,-1 q -61,0 -98,34 -37,34 -37,83 0,45 21,72 22,27 58,39 36,12 79,12 34,0 69,-6 36,-5 70,-14 l -30,-5 v 53 q 0,47 -25,69 -25,22 -68,22 -28,0 -66,-10 -37,-9 -69,-26 l -22,48 q 35,22 79,32 44,11 79,11 52,0 89,-17 37,-17 56,-49 20,-31 20,-73 V 53 h 62 V 0 h -127 l -6,56 h 28 q -39,-34 -76,-51 -37,-16 -86,-16 z m 11,51 q 37,0 74,16 37,16 77,49 l -30,-36 v 116 l 23,-18 q -26,8 -59,13 -33,5 -68,5 -35,0 -64,-16 -29,-15 -29,-59 0,-30 20,-50 20,-20 56,-20 z m 515,-50 q -31,0 -60,8 -28,8 -49,22 -21,14 -32,33 l 15,-9 V 0 h -58 v 136 h 52 l 6,-65 -14,47 q 11,-37 49,-57 39,-20 81,-20 38,0 63,15 26,15 26,42 0,32 -22,44 -21,13 -68,23 l -55,12 q -55,14 -87,37 -32,24 -32,79 0,53 41,81 42,29 104,29 24,0 50,-7 27,-6 49,-19 22,-13 31,-32 l -15,5 v 45 h 59 V 260 h -52 l -13,95 17,-66 q -4,18 -23,31 -18,14 -43,22 -24,8 -48,8 -32,0 -58,-13 -25,-13 -25,-42 0,-22 17,-34 18,-12 58,-22 l 51,-11 q 38,-9 68,-22 31,-12 49,-36 18,-23 18,-66 0,-39 -22,-65 -21,-25 -56,-37 -34,-12 -72,-12 z m 460,10 h -73 q -56,0 -85,28 -29,29 -29,88 v 224 h -65 v 53 h 65 v 134 l 74,29 V 393 h 104 V 340 H 3014 V 120 q 0,-37 12,-52 12,-15 41,-15 h 60 z m 267,0 h -211 v 53 h 73 v 468 h -71 v 52 h 145 V 53 h 64 z m 269,-12 q -62,0 -113,26 -50,26 -80,73 -29,47 -29,109 0,64 28,110 28,47 75,72 47,26 105,26 60,0 103,-25 44,-25 67,-71 23,-46 23,-108 v -19 h -336 l 1,46 h 262 q 0,39 -16,66 -15,28 -42,42 -27,15 -62,15 -37,0 -67,-18 -30,-17 -48,-50 -17,-32 -17,-78 0,-49 18,-85 18,-35 50,-55 33,-19 75,-19 45,0 83,18 38,18 66,45 l 26,-45 q -27,-31 -70,-53 -43,-22 -102,-22 z"
           fill="#ffffff"
           id="path25"
           style="fill:#ffffff;fill-opacity:1" />
      </g>
    </g>
    <g
       transform="translate(-21.504,896)"
       id="g29"
       style="fill:#ffffff;fill-opacity:1">
      <g
         transform="scale(1.024,-1.024)"
         id="g28"
         style="fill:#ffffff;fill-opacity:1">
        <path
           d="M 154,0 H 60 v 94 h 94 z M 484,0 H 274 v 53 h 76 v 457 h -76 v 53 H 465 L 649,168 824,563 h 194 V 510 H 942 V 53 h 76 V 0 H 791 v 53 h 73 V 496 L 652,29 H 626 L 411,496 V 53 h 73 z m 828,0 h -219 v 53 h 76 v 287 h -76 v 53 h 149 V 276 l -14,2 q 11,45 28,71 18,26 40,37 23,12 47,12 20,0 40,-5 20,-5 40,-15 l -18,-67 q -17,11 -34,16 -17,6 -35,6 -38,0 -66,-32 -27,-31 -27,-90 l -1,-158 h 70 z m 382,0 h -222 v 53 h 72 l 163,457 h -63 v 53 h 275 v -53 h -65 L 2022,53 h 68 V 0 h -229 v 53 h 75 l -57,164 H 1675 L 1619,53 h 75 z m 81,509 -84,-239 h 172 l -82,239 z"
           fill="#ffffff"
           id="path27"
           style="fill:#ffffff;fill-opacity:1" />
      </g>
    </g>
  </g>
  <path
     style="fill:#11181c;fill-opacity:1;stroke-width:0.241821"
     d="m 14.751087,78.470945 v -6.650081 h 5.985557 5.985557 l 22.549333,-22.550298 22.54933,-22.5503 v -5.98459 -5.984589 h 6.650081 6.65008 v 6.77099 6.770991 H 79.134922 73.14882 L 62.510731,38.933218 51.872641,49.57337 62.994416,60.697116 74.116194,71.820864 h 5.502414 5.502417 v 6.650081 6.65008 h -6.65008 -6.650081 V 78.65128 72.181536 L 61.180715,61.543446 50.540562,50.905357 39.416816,62.027132 28.293068,73.14891 v 5.986056 5.986059 h -6.770991 -6.77099 z m 11.607412,0 v -4.715512 h -4.836422 -4.836422 v 4.715512 4.715511 h 4.836422 4.836422 z m 56.827957,0 v -4.715512 h -4.715511 -4.715512 v 4.715512 4.715511 h 4.715512 4.715511 z m 0,-56.948868 v -4.836422 h -4.715511 -4.715512 v 4.836422 4.836422 h 4.715512 4.715511 z"
     id="path1"
     transform="translate(-2057.2161,-893.95201)" />
  <path
     style="fill:#11181c;fill-opacity:1;stroke-width:0.241821"
     d="m 100.11393,41.351407 v -1.209106 h 1.93457 1.93457 V 28.897621 17.65294 h -1.93457 -1.93457 v -1.209106 -1.209105 h 5.6828 5.68279 v 1.209105 1.209106 h -1.93457 -1.93456 v 11.244681 11.24468 h 5.92461 5.92462 v -4.231869 -4.231869 h 1.45093 1.45092 v 5.440975 5.440974 H 111.2377 100.11393 Z"
     id="path2"
     transform="translate(-2057.2161,-893.95201)" />
  <path
     style="fill:#11181c;fill-opacity:1;stroke-width:0.241821"
     d="m 129.62036,42.586685 c -2.55571,-0.912872 -4.0951,-3.305314 -3.78997,-5.8902 0.19279,-1.633176 0.78613,-2.727695 1.93868,-3.57623 1.65677,-1.219763 3.18047,-1.529734 6.6761,-1.358144 1.66657,0.08181 3.34383,0.220744 3.72726,0.308749 l 0.69713,0.16001 -0.10998,-2.095381 c -0.1178,-2.244458 -0.40669,-2.888521 -1.74168,-3.882959 -1.0012,-0.745801 -5.22253,-0.698305 -7.28088,0.08192 -2.25957,0.856493 -2.15498,0.860118 -2.60826,-0.0904 -0.22798,-0.478082 -0.41451,-0.960968 -0.41451,-1.073079 0,-0.112111 0.5169,-0.425488 1.14865,-0.696395 3.11937,-1.337629 6.93263,-1.706859 9.57053,-0.926696 1.70208,0.503392 3.39119,1.949666 4.12981,3.536085 0.46321,0.994889 0.51343,1.601379 0.58571,7.073267 l 0.0791,5.985072 h 1.43232 1.43233 v 1.209106 1.209105 h -3.02277 -3.02276 V 41.69399 c 0,-0.476589 -0.0816,-0.830253 -0.18137,-0.785919 -0.0998,0.04433 -1.01428,0.500071 -2.03229,1.01275 -1.60157,0.806568 -2.1228,0.946103 -3.86913,1.035778 -1.58552,0.08142 -2.30245,0.0021 -3.34398,-0.369911 z m 4.69145,-1.975573 c 0.8089,-0.14116 2.12365,-0.603642 2.92166,-1.02774 l 1.45093,-0.771087 0.0689,-2.328657 c 0.081,-2.74085 0.26134,-2.572148 -3.04848,-2.852486 -4.20919,-0.356514 -6.25351,0.503869 -6.71823,2.827476 -0.36006,1.800336 0.54159,3.457202 2.20139,4.045232 1.19016,0.421644 1.30059,0.425436 3.12387,0.107262 z"
     id="path3"
     transform="translate(-2057.2161,-893.95201)" />
  <path
     style="fill:#11181c;fill-opacity:1;stroke-width:0.241821"
     d="m 147.26905,41.351407 v -1.209106 h 1.81365 1.81366 v -7.133722 -7.133722 h -1.81366 -1.81365 v -1.209106 -1.209105 h 3.5064 3.50641 v 0.987436 c 0,0.54309 0.0816,0.951163 0.18136,0.906829 0.0998,-0.04433 0.99751,-0.482498 1.99503,-0.973697 3.85839,-1.899969 7.23377,-1.652554 9.47865,0.694785 1.31552,1.375565 1.4033,1.924465 1.4033,8.775187 v 6.295115 h 1.81365 1.81366 v 1.209106 1.209105 h -4.95733 -4.95733 v -1.209105 -1.209106 h 1.57183 1.57184 l -0.001,-5.380519 c -7.9e-4,-3.15934 -0.11091,-5.775148 -0.26674,-6.336456 -0.35327,-1.272433 -1.57673,-2.466352 -2.75363,-2.687139 -1.30553,-0.24492 -3.38605,0.196429 -5.28067,1.120213 l -1.61227,0.786112 v 6.248895 6.248894 h 1.69274 1.69275 v 1.209106 1.209105 h -5.19915 -5.19915 z"
     id="path4"
     transform="translate(-2057.2161,-893.95201)" />
  <path
     style="fill:#11181c;fill-opacity:1;stroke-width:0.241821"
     d="m 180.64036,42.778646 c -3.01034,-0.587899 -6.18269,-3.17954 -7.28692,-5.953022 -0.45718,-1.148301 -0.55692,-1.853595 -0.55692,-3.937955 0,-3.164287 0.53679,-4.694561 2.33817,-6.66555 3.42708,-3.749776 9.60316,-4.300897 12.93918,-1.154624 0.47083,0.444049 0.89524,0.807362 0.94314,0.807362 0.0479,0 0.0871,-0.544098 0.0871,-1.209106 v -1.209105 h 1.33002 1.33002 v 3.385495 3.385496 h -1.17626 c -1.17058,0 -1.17824,-0.0052 -1.59014,-1.083757 -0.52237,-1.367816 -2.18747,-2.861819 -3.6441,-3.269649 -1.48396,-0.415482 -3.92173,-0.191572 -5.32848,0.489424 -2.90254,1.405098 -4.22964,4.257547 -3.70486,7.96317 0.56499,3.989556 3.61821,6.308209 7.88207,5.985734 2.08623,-0.157781 3.33427,-0.701518 5.02147,-2.187709 l 1.20793,-1.064023 0.54527,0.802445 c 0.75199,1.106647 0.69645,1.384189 -0.48246,2.411145 -2.5364,2.209457 -6.37221,3.184243 -9.85421,2.504229 z"
     id="path5"
     transform="translate(-2057.2161,-893.95201)" />
  <path
     style="fill:#11181c;fill-opacity:1;stroke-width:0.241821"
     d="m 200.14082,42.665223 c -1.70272,-0.545735 -3.37756,-2.28758 -3.76917,-3.919962 -0.53493,-2.229837 0.0202,-4.018166 1.69126,-5.448548 1.52607,-1.306258 3.42367,-1.725994 6.93994,-1.535069 1.56331,0.08488 3.14163,0.222421 3.50739,0.305639 l 0.66501,0.151304 v -1.7655 c 0,-2.394288 -0.59274,-3.628308 -2.09123,-4.353714 -0.95988,-0.464671 -1.36805,-0.514556 -3.31051,-0.404606 -1.55807,0.08819 -2.74229,0.318573 -3.99018,0.776259 -0.976,0.357965 -1.79538,0.615112 -1.82083,0.571436 -0.0255,-0.04368 -0.23271,-0.489553 -0.46058,-0.990839 l -0.41429,-0.911429 0.76044,-0.462453 c 1.28026,-0.77857 4.49816,-1.526664 6.61166,-1.537071 3.58354,-0.01765 5.94772,1.115882 7.25464,3.478297 l 0.72546,1.311369 0.0788,6.105983 0.0788,6.105982 h 1.4326 1.43259 v 1.209106 1.209105 h -2.87598 c -3.05456,0 -3.16954,-0.04531 -3.16954,-1.249035 0,-0.266209 -0.0816,-0.447743 -0.18137,-0.403409 -0.0998,0.04433 -1.01428,0.500071 -2.03229,1.01275 -1.61179,0.811715 -2.11166,0.944346 -3.86914,1.026608 -1.39294,0.0652 -2.38232,-0.02223 -3.19345,-0.282203 z m 4.71931,-2.064045 c 0.73008,-0.146622 1.97245,-0.609105 2.76082,-1.027739 l 1.43338,-0.761154 0.0689,-2.328657 c 0.0811,-2.74085 0.26134,-2.572148 -3.04848,-2.852486 -4.61738,-0.391087 -6.67596,0.67987 -6.67596,3.473102 0,2.255082 1.30673,3.556373 3.75108,3.735469 0.21057,0.01543 0.9802,-0.09191 1.71029,-0.238535 z"
     id="path6"
     transform="translate(-2057.2161,-893.95201)" />
  <path
     style="fill:#11181c;fill-opacity:1;stroke-width:0.241821"
     d="m 225.98181,42.71867 c -1.30666,-0.340249 -3.13862,-1.20964 -3.38336,-1.605629 -0.31322,-0.506798 -0.60669,-0.216033 -0.60669,0.601097 v 0.846374 h -1.2091 -1.20911 v -3.264584 -3.264585 h 1.06074 1.06074 l 0.16985,1.14865 c 0.20378,1.378 0.58914,1.849477 2.18236,2.670001 0.96877,0.498928 1.64171,0.641219 3.3855,0.715859 1.91099,0.0818 2.30909,0.02479 3.26458,-0.467474 2.19083,-1.128701 2.16156,-3.808661 -0.0523,-4.786275 -0.56974,-0.251597 -2.28733,-0.73691 -3.81685,-1.078474 -3.05196,-0.681549 -5.90227,-1.938682 -6.59656,-2.909427 -0.68532,-0.958195 -0.99776,-2.977436 -0.65753,-4.249508 0.38575,-1.442278 1.94567,-2.937899 3.66269,-3.511713 2.46572,-0.824026 6.14229,-0.414262 7.98151,0.88956 0.85149,0.603621 0.92996,0.580803 0.92996,-0.270433 0,-0.718135 0.0134,-0.725463 1.33001,-0.725463 h 1.33002 v 3.143674 3.143674 h -1.18641 -1.18642 l -0.16926,-1.230706 c -0.15487,-1.126034 -0.2622,-1.289645 -1.26199,-1.923692 -2.98325,-1.891918 -7.56301,-1.336288 -8.12826,0.986142 -0.47671,1.958672 0.52408,2.703683 5.16006,3.841257 5.48985,1.347099 7.12721,2.545026 7.42522,5.432455 0.35675,3.456546 -2.19104,5.803041 -6.60096,6.079439 -0.95109,0.05961 -2.18958,-0.03084 -2.87845,-0.210219 z"
     id="path7"
     transform="translate(-2057.2161,-893.95201)" />
  <path
     style="fill:#11181c;fill-opacity:1;stroke-width:0.241821"
     d="m 245.56932,42.334393 c -0.99691,-0.242697 -2.09021,-0.836984 -2.62314,-1.425862 -0.9773,-1.07991 -1.1034,-2.062651 -1.11447,-8.68587 l -0.0106,-6.347804 h -1.57183 -1.57184 v -1.209106 -1.209105 h 1.57184 1.57183 v -3.23887 -3.238869 l 1.57438,-0.630268 c 0.86591,-0.346647 1.62765,-0.630268 1.69275,-0.630268 0.0651,0 0.11837,1.741112 0.11837,3.869137 v 3.869138 h 2.53912 2.53912 v 1.209105 1.209106 h -2.55022 -2.55023 l 0.0716,6.550447 0.0716,6.550447 0.67849,0.583275 c 0.60125,0.516871 0.91097,0.583275 2.72049,0.583275 h 2.04199 v 1.209106 1.209105 l -2.23684,-0.02475 c -1.23027,-0.01361 -2.56331,-0.104229 -2.96231,-0.201366 z"
     id="path8"
     transform="translate(-2057.2161,-893.95201)" />
  <path
     style="fill:#11181c;fill-opacity:1;stroke-width:0.241821"
     d="m 253.67033,41.351407 v -1.209106 h 1.81365 1.81366 V 28.655799 17.169298 h -1.81366 -1.81365 v -1.209106 -1.209105 h 3.5064 3.50641 v 12.695607 12.695607 h 1.45092 1.45093 v 1.209106 1.209105 h -4.95733 -4.95733 z"
     id="path9"
     transform="translate(-2057.2161,-893.95201)" />
  <path
     style="fill:#11181c;fill-opacity:1;stroke-width:0.241821"
     d="m 273.80209,42.670506 c -2.59051,-0.697566 -5.01049,-2.485957 -6.26841,-4.632435 -1.66385,-2.839151 -1.70155,-6.816183 -0.0944,-9.959911 1.66084,-3.248766 5.92456,-5.408838 9.87707,-5.003892 4.80843,0.492639 7.76272,3.646546 8.19392,8.747574 l 0.15142,1.79129 h -7.89467 -7.89467 v 0.682385 c 0,1.134754 0.70163,2.830034 1.61094,3.892363 1.58012,1.846009 4.10826,2.656295 6.89309,2.209277 1.59854,-0.256597 4.24241,-1.443965 4.94576,-2.221157 0.56454,-0.623808 0.69932,-0.579549 1.32676,0.435662 l 0.54855,0.887572 -1.0726,0.951847 c -2.0258,1.797744 -4.26976,2.595649 -7.23969,2.574289 -0.99751,-0.0072 -2.38489,-0.166863 -3.08306,-0.354864 z m 8.32925,-12.18451 c -0.17594,-1.485577 -0.88584,-2.907368 -1.86156,-3.728384 -0.81879,-0.688965 -2.79654,-1.366397 -3.98918,-1.366397 -1.37714,0 -3.2614,0.723906 -4.28423,1.64594 -1.07843,0.972163 -2.11792,2.920344 -2.12167,3.9764 l -0.002,0.665008 h 6.20012 6.20012 z"
     id="path13"
     transform="translate(-2057.2161,-893.95201)" />
  <path
     style="fill:#11181c;fill-opacity:1;stroke-width:0.241821"
     d="m 169.03294,84.03283 v -1.088195 h 1.7538 1.75379 l 4.01546,-11.244681 4.01546,-11.244681 h -1.53738 -1.53739 v -1.209105 -1.209106 h 6.52917 6.52917 v 1.198057 1.198057 l -1.53159,0.0715 -1.53159,0.0715 4.11146,11.184225 4.11145,11.184226 h 1.65201 1.652 v 1.088195 1.088195 h -5.44098 -5.44097 V 84.03283 82.944635 h 1.83953 c 1.3692,0 1.81135,-0.07729 1.72931,-0.302277 -0.0606,-0.166252 -0.69798,-2.015264 -1.41635,-4.108917 l -1.30612,-3.806641 -5.11504,-0.002 -5.11504,-0.002 -0.28069,0.785918 c -1.00529,2.814793 -2.42665,7.046096 -2.42665,7.223987 0,0.116606 0.81614,0.212012 1.81365,0.212012 h 1.81366 v 1.088195 1.088195 h -5.32006 -5.32007 z m 19.10387,-11.872849 c 0,-0.615266 -4.03904,-11.704708 -4.26314,-11.704708 -0.15826,0 -0.55784,0.788941 -0.88793,1.753203 -0.3301,0.964262 -1.25924,3.630339 -2.06476,5.924617 l -1.46459,4.171414 h 4.34021 c 2.38712,0 4.34021,-0.06504 4.34021,-0.144526 z"
     id="path14"
     transform="translate(-2057.2161,-893.95201)" />
  <path
     style="fill:#11181c;fill-opacity:1;stroke-width:0.241821"
     d="m 150.65454,84.03283 v -1.088195 h 1.81366 1.81366 V 75.810912 68.67719 h -1.81366 -1.81366 v -1.209105 -1.209106 h 3.49581 3.49581 l 0.071,1.734462 0.0711,1.734461 0.78358,-1.263128 c 0.63086,-1.016927 1.04855,-1.384433 2.143,-1.885486 1.14484,-0.524129 1.56787,-0.597857 2.68021,-0.467124 1.86105,0.21873 3.04672,0.748359 2.88919,1.290583 -0.0684,0.235438 -0.2463,0.899646 -0.39534,1.476016 -0.2188,0.846151 -0.34962,1.014101 -0.6794,0.872177 -2.68247,-1.154435 -4.15745,-1.045139 -5.75383,0.426357 -1.57221,1.449211 -1.78832,2.427521 -1.78832,8.095717 v 4.671621 h 1.69275 1.69275 v 1.088195 1.088195 h -5.19916 -5.19915 z"
     id="path17"
     transform="translate(-2057.2161,-893.95201)" />
  <path
     style="fill:#11181c;fill-opacity:1;stroke-width:0.241821"
     d="m 110.51224,84.03283 v -1.088195 h 1.93457 1.93457 V 71.699954 60.455273 h -1.93457 -1.93457 v -1.214327 -1.214327 l 4.61995,0.06568 4.61995,0.06568 4.40007,9.431022 c 2.42004,5.187063 4.49646,9.431023 4.61426,9.431023 0.11781,0 2.09252,-4.24396 4.38825,-9.431023 l 4.17406,-9.431022 4.6074,-0.06568 4.6074,-0.06568 v 1.214327 1.214327 h -1.81366 -1.81365 v 11.244681 11.244681 h 1.81365 1.81366 v 1.088195 1.088195 h -5.32006 -5.32007 V 84.03283 82.944635 h 1.69275 1.69275 l -0.009,-11.063315 -0.009,-11.063315 -0.79022,1.692747 c -0.43462,0.931012 -2.79741,6.127142 -5.25064,11.546958 -3.76168,8.310513 -4.53788,9.854209 -4.95488,9.854209 -0.41694,0 -1.32295,-1.80066 -5.77949,-11.486502 -2.90677,-6.317576 -5.32326,-11.486502 -5.36999,-11.486502 -0.0467,0 -0.085,4.951287 -0.085,11.00286 v 11.00286 h 1.81366 1.81366 v 1.088195 1.088195 h -5.07825 -5.07824 z"
     id="path19"
     transform="translate(-2057.2161,-893.95201)" />
  <path
     style="fill:#11181c;fill-opacity:1;stroke-width:0.241821"
     d="m 100.11393,82.944635 v -2.17639 h 2.17639 2.17639 v 2.17639 2.17639 h -2.17639 -2.17639 z"
     id="path20"
     transform="translate(-2057.2161,-893.95201)" />
</svg>
