<?xml version="1.0" encoding="UTF-8" standalone="no"?>
<svg
   version="1.1"
   viewBox="-2057.2161 -893.95201 349.99999 57.999995"
   id="svg30"
   width="350"
   height="57.999996"
   xmlns="http://www.w3.org/2000/svg"
   xmlns:svg="http://www.w3.org/2000/svg">
  <desc
     id="desc1">Created with Snap</desc>
  <defs
     id="defs1" />
  <g
     id="g30"
     transform="matrix(0.04768371,0,0,0.04768371,-1959.1204,-851.32506)">
    <rect
       x="-2057.2161"
       y="-893.95203"
       width="7340.0327"
       height="1216.3483"
       style="fill:#11181c;fill-opacity:1;stroke-width:0.82213;image-rendering:auto"
       fill="#214f4b"
       id="rect1" />
    <g
       transform="matrix(16.384002,0,0,16.384002,-1750.0161,-586.752)"
       id="g25">
      <g
         display="none"
         id="g2">
        <rect
           x="-27.333"
           y="-102.661"
           display="inline"
           fill="#ffffff"
           width="473.33301"
           height="236"
           id="rect2" />
      </g>
      <g
         display="none"
         id="g8">
        <g
           display="inline"
           id="g3">
          <rect
             x="22.318001"
             y="13.214"
             transform="matrix(0.7071,-0.7071,0.7071,0.7071,-9.1591,22.6972)"
             fill="#ffffff"
             width="1"
             height="18.382"
             id="rect3" />
        </g>
        <g
           display="inline"
           id="g4">
          <rect
             x="0.0049999999"
             y="15.5"
             transform="matrix(0.7071,-0.7071,0.7071,0.7071,-6.6272,16.0001)"
             fill="#ffffff"
             width="31.99"
             height="1"
             id="rect4" />
        </g>
        <g
           display="inline"
           id="g5">
          <rect
             x="25.806"
             fill="#ffffff"
             width="6.1939998"
             height="6.1939998"
             id="rect5"
             y="0" />
        </g>
        <g
           display="inline"
           id="g6">
          <rect
             x="25.806"
             y="25.806"
             fill="#ffffff"
             width="6.1939998"
             height="6.1939998"
             id="rect6" />
        </g>
        <g
           display="inline"
           id="g7">
          <rect
             y="25.806"
             fill="#ffffff"
             width="6.1939998"
             height="6.1939998"
             id="rect7"
             x="0" />
        </g>
      </g>
      <g
         id="g14">
        <g
           id="g9">
          <rect
             x="21.014"
             y="13.754"
             transform="matrix(0.7071,-0.7071,0.7071,0.7071,-8.6193,21.3917)"
             width="1"
             height="14.694"
             fill="#ffffff"
             id="rect8" />
        </g>
        <g
           id="g10">
          <rect
             x="0.92199999"
             y="15.669"
             transform="matrix(0.7071,-0.7071,0.7071,0.7071,-6.7967,15.9298)"
             width="29.816999"
             height="1"
             fill="#ffffff"
             id="rect9" />
        </g>
        <g
           id="g11">
          <path
             d="M 31,1 V 5.194 H 26.806 V 1 H 31 M 32,0 H 25.806 V 6.194 H 32 Z"
             fill="#ffffff"
             id="path10" />
        </g>
        <g
           id="g12">
          <path
             d="M 31,26.806 V 31 H 26.806 V 26.806 H 31 m 1,-1 H 25.806 V 32 H 32 Z"
             fill="#ffffff"
             id="path11" />
        </g>
        <g
           id="g13">
          <path
             d="M 5.194,26.806 V 31 H 1 v -4.194 h 4.194 m 1,-1 H 0 V 32 h 6.194 z"
             fill="#ffffff"
             id="path12" />
        </g>
      </g>
      <g
         display="none"
         id="g21">
        <line
           display="inline"
           fill="#ffffff"
           stroke="#ffffff"
           stroke-miterlimit="10"
           x1="26.709"
           y1="26.296"
           x2="16.319"
           y2="15.906"
           id="line14" />
        <line
           display="inline"
           fill="#ffffff"
           stroke="#ffffff"
           stroke-miterlimit="10"
           x1="5.289"
           y1="26.711"
           x2="26.372"
           y2="5.6279998"
           id="line15" />
        <g
           display="inline"
           id="g16">
          <rect
             x="26.306999"
             y="0.5"
             fill="#ffffff"
             width="5.1929998"
             height="5.1929998"
             id="rect15" />
          <g
             id="g15">
            <path
               d="M 31,1 V 5.194 H 26.806 V 1 H 31 M 32,0 H 25.806 V 6.194 H 32 Z"
               fill="#ffffff"
               id="path15" />
          </g>
        </g>
        <g
           display="inline"
           id="g18">
          <rect
             x="26.306999"
             y="26.306"
             fill="#ffffff"
             width="5.1929998"
             height="5.1939998"
             id="rect16" />
          <g
             id="g17">
            <path
               d="M 31,26.806 V 31 H 26.806 V 26.806 H 31 m 1,-1 H 25.806 V 32 H 32 Z"
               fill="#ffffff"
               id="path16" />
          </g>
        </g>
        <g
           display="inline"
           id="g20">
          <rect
             x="0.5"
             y="26.306"
             fill="#ffffff"
             width="5.1929998"
             height="5.1939998"
             id="rect18" />
          <g
             id="g19">
            <path
               d="M 5.194,26.806 V 31 H 1 v -4.194 h 4.194 m 1,-1 H 0 V 32 h 6.194 z"
               fill="#ffffff"
               id="path18" />
          </g>
        </g>
      </g>
      <g
         display="none"
         id="g24">
        <line
           display="inline"
           fill="#ffffff"
           stroke="#ffffff"
           stroke-miterlimit="10"
           x1="26.709"
           y1="26.296"
           x2="16.319"
           y2="15.906"
           id="line21" />
        <line
           display="inline"
           fill="#ffffff"
           stroke="#ffffff"
           stroke-miterlimit="10"
           x1="5.289"
           y1="26.711"
           x2="26.372"
           y2="5.6279998"
           id="line22" />
        <rect
           x="25.806"
           display="inline"
           fill="#ffffff"
           width="6.1939998"
           height="6.1939998"
           id="rect22"
           y="0" />
        <rect
           x="25.806"
           y="25.806"
           display="inline"
           fill="#ffffff"
           width="6.1939998"
           height="6.1939998"
           id="rect23" />
        <rect
           y="25.806"
           display="inline"
           fill="#ffffff"
           width="6.1939998"
           height="6.1939998"
           id="rect24"
           x="0" />
      </g>
      <desc
         id="desc24">Created with Snap</desc>
      <defs
         id="defs24" />
    </g>
    <g
       id="g27"
       transform="translate(-957.69953,-48.933553)">
      <g
         transform="scale(1.024,-1.024)"
         id="g26">
        <path
           d="M 499,0 H 39 v 53 h 78 V 510 H 39 v 53 H 277 V 510 H 199 V 53 h 234 v 173 h 66 z m 200,-11 q -61,0 -98,34 -37,34 -37,83 0,45 21,72 22,27 58,39 36,12 79,12 34,0 69,-6 36,-5 70,-14 l -30,-5 v 53 q 0,47 -25,69 -25,22 -68,22 -28,0 -66,-10 -37,-9 -69,-26 l -22,48 q 35,22 79,32 44,11 79,11 52,0 89,-17 37,-17 56,-49 20,-31 20,-73 V 53 h 62 V 0 H 839 l -6,56 h 28 Q 822,22 785,5 748,-11 699,-11 Z m 11,51 q 37,0 74,16 37,16 77,49 L 831,69 v 116 l 23,-18 q -26,8 -59,13 -33,5 -68,5 -35,0 -64,-16 -29,-15 -29,-59 0,-30 20,-50 20,-20 56,-20 z M 1223,0 h -220 v 53 h 76 v 287 h -76 v 53 h 149 v -54 l -28,-3 q 42,29 84,48 42,19 86,19 54,0 91,-34 38,-33 38,-97 V 53 h 73 V 0 h -211 v 53 h 65 v 205 q 0,41 -20,64 -20,23 -55,23 -36,0 -73,-16 -37,-16 -79,-44 l 29,32 V 53 h 71 z m 515,-10 q -62,0 -111,27 -48,27 -76,74 -27,47 -27,108 0,61 26,107 27,46 73,72 47,26 107,26 58,0 96,-26 38,-26 48,-64 h -14 v 81 h 62 V 254 h -56 q -9,43 -41,67 -31,25 -78,25 -43,0 -76,-19 -33,-18 -52,-51 -18,-33 -18,-75 0,-45 18,-80 19,-34 51,-54 33,-19 75,-19 53,0 85,20 33,21 60,52 l 31,-45 q -29,-38 -75,-62 -46,-23 -108,-23 z m 403,-1 q -61,0 -98,34 -37,34 -37,83 0,45 21,72 22,27 58,39 36,12 79,12 34,0 69,-6 36,-5 70,-14 l -30,-5 v 53 q 0,47 -25,69 -25,22 -68,22 -28,0 -66,-10 -37,-9 -69,-26 l -22,48 q 35,22 79,32 44,11 79,11 52,0 89,-17 37,-17 56,-49 20,-31 20,-73 V 53 h 62 V 0 h -127 l -6,56 h 28 q -39,-34 -76,-51 -37,-16 -86,-16 z m 11,51 q 37,0 74,16 37,16 77,49 l -30,-36 v 116 l 23,-18 q -26,8 -59,13 -33,5 -68,5 -35,0 -64,-16 -29,-15 -29,-59 0,-30 20,-50 20,-20 56,-20 z m 515,-50 q -31,0 -60,8 -28,8 -49,22 -21,14 -32,33 l 15,-9 V 0 h -58 v 136 h 52 l 6,-65 -14,47 q 11,-37 49,-57 39,-20 81,-20 38,0 63,15 26,15 26,42 0,32 -22,44 -21,13 -68,23 l -55,12 q -55,14 -87,37 -32,24 -32,79 0,53 41,81 42,29 104,29 24,0 50,-7 27,-6 49,-19 22,-13 31,-32 l -15,5 v 45 h 59 V 260 h -52 l -13,95 17,-66 q -4,18 -23,31 -18,14 -43,22 -24,8 -48,8 -32,0 -58,-13 -25,-13 -25,-42 0,-22 17,-34 18,-12 58,-22 l 51,-11 q 38,-9 68,-22 31,-12 49,-36 18,-23 18,-66 0,-39 -22,-65 -21,-25 -56,-37 -34,-12 -72,-12 z m 460,10 h -73 q -56,0 -85,28 -29,29 -29,88 v 224 h -65 v 53 h 65 v 134 l 74,29 V 393 h 104 V 340 H 3014 V 120 q 0,-37 12,-52 12,-15 41,-15 h 60 z m 267,0 h -211 v 53 h 73 v 468 h -71 v 52 h 145 V 53 h 64 z m 269,-12 q -62,0 -113,26 -50,26 -80,73 -29,47 -29,109 0,64 28,110 28,47 75,72 47,26 105,26 60,0 103,-25 44,-25 67,-71 23,-46 23,-108 v -19 h -336 l 1,46 h 262 q 0,39 -16,66 -15,28 -42,42 -27,15 -62,15 -37,0 -67,-18 -30,-17 -48,-50 -17,-32 -17,-78 0,-49 18,-85 18,-35 50,-55 33,-19 75,-19 45,0 83,18 38,18 66,45 l 26,-45 q -27,-31 -70,-53 -43,-22 -102,-22 z"
           fill="#ffffff"
           id="path25" />
      </g>
    </g>
    <g
       transform="translate(3026.3572,-33.7375)"
       id="g29">
      <g
         transform="scale(1.024,-1.024)"
         id="g28">
        <path
           d="M 154,0 H 60 v 94 h 94 z M 484,0 H 274 v 53 h 76 v 457 h -76 v 53 H 465 L 649,168 824,563 h 194 V 510 H 942 V 53 h 76 V 0 H 791 v 53 h 73 V 496 L 652,29 H 626 L 411,496 V 53 h 73 z m 828,0 h -219 v 53 h 76 v 287 h -76 v 53 h 149 V 276 l -14,2 q 11,45 28,71 18,26 40,37 23,12 47,12 20,0 40,-5 20,-5 40,-15 l -18,-67 q -17,11 -34,16 -17,6 -35,6 -38,0 -66,-32 -27,-31 -27,-90 l -1,-158 h 70 z m 382,0 h -222 v 53 h 72 l 163,457 h -63 v 53 h 275 v -53 h -65 L 2022,53 h 68 V 0 h -229 v 53 h 75 l -57,164 H 1675 L 1619,53 h 75 z m 81,509 -84,-239 h 172 l -82,239 z"
           fill="#ffffff"
           id="path27" />
      </g>
    </g>
  </g>
</svg>
