<?xml version="1.0" encoding="UTF-8" standalone="no"?>
<svg
   version="1.1"
   viewBox="-2057.2161 -893.95201 349.99999 57.999995"
   id="svg30"
   width="350"
   height="57.999996"
   sodipodi:docname="L13100-2.svg"
   inkscape:version="1.3.2 (091e20e, 2023-11-25, custom)"
   xmlns:inkscape="http://www.inkscape.org/namespaces/inkscape"
   xmlns:sodipodi="http://sodipodi.sourceforge.net/DTD/sodipodi-0.dtd"
   xmlns="http://www.w3.org/2000/svg"
   xmlns:svg="http://www.w3.org/2000/svg">
  <sodipodi:namedview
     id="namedview1"
     pagecolor="#ffffff"
     bordercolor="#000000"
     borderopacity="0.25"
     inkscape:showpageshadow="2"
     inkscape:pageopacity="0.0"
     inkscape:pagecheckerboard="0"
     inkscape:deskcolor="#d1d1d1"
     inkscape:zoom="3.5485714"
     inkscape:cx="175"
     inkscape:cy="51.429147"
     inkscape:window-width="1920"
     inkscape:window-height="1009"
     inkscape:window-x="-8"
     inkscape:window-y="-8"
     inkscape:window-maximized="1"
     inkscape:current-layer="svg30" />
  <desc
     id="desc1">Created with Snap</desc>
  <defs
     id="defs1" />
  <g
     id="g30"
     transform="matrix(0.04768371,0,0,0.04768371,-1959.1204,-851.32506)">
    <rect
       x="-2057.2161"
       y="-893.95203"
       width="7340.0327"
       height="1216.3483"
       style="fill:#ffffff;fill-opacity:1;stroke-width:0.82213;image-rendering:auto"
       fill="#214f4b"
       id="rect1" />
    <g
       transform="matrix(16.384002,0,0,16.384002,-1750.0161,-586.752)"
       id="g25">
      <g
         display="none"
         id="g2">
        <rect
           x="-27.333"
           y="-102.661"
           display="inline"
           fill="#ffffff"
           width="473.33301"
           height="236"
           id="rect2" />
      </g>
      <g
         display="none"
         id="g8">
        <g
           display="inline"
           id="g3">
          <rect
             x="22.318001"
             y="13.214"
             transform="matrix(0.7071,-0.7071,0.7071,0.7071,-9.1591,22.6972)"
             fill="#ffffff"
             width="1"
             height="18.382"
             id="rect3" />
        </g>
        <g
           display="inline"
           id="g4">
          <rect
             x="0.0049999999"
             y="15.5"
             transform="matrix(0.7071,-0.7071,0.7071,0.7071,-6.6272,16.0001)"
             fill="#ffffff"
             width="31.99"
             height="1"
             id="rect4" />
        </g>
        <g
           display="inline"
           id="g5">
          <rect
             x="25.806"
             fill="#ffffff"
             width="6.1939998"
             height="6.1939998"
             id="rect5"
             y="0" />
        </g>
        <g
           display="inline"
           id="g6">
          <rect
             x="25.806"
             y="25.806"
             fill="#ffffff"
             width="6.1939998"
             height="6.1939998"
             id="rect6" />
        </g>
        <g
           display="inline"
           id="g7">
          <rect
             y="25.806"
             fill="#ffffff"
             width="6.1939998"
             height="6.1939998"
             id="rect7"
             x="0" />
        </g>
      </g>
      <g
         id="g14">
        <g
           id="g9">
          <rect
             x="21.014"
             y="13.754"
             transform="matrix(0.7071,-0.7071,0.7071,0.7071,-8.6193,21.3917)"
             width="1"
             height="14.694"
             fill="#ffffff"
             id="rect8" />
        </g>
        <g
           id="g10">
          <rect
             x="0.92199999"
             y="15.669"
             transform="matrix(0.7071,-0.7071,0.7071,0.7071,-6.7967,15.9298)"
             width="29.816999"
             height="1"
             fill="#ffffff"
             id="rect9" />
        </g>
        <g
           id="g11">
          <path
             d="M 31,1 V 5.194 H 26.806 V 1 H 31 M 32,0 H 25.806 V 6.194 H 32 Z"
             fill="#ffffff"
             id="path10" />
        </g>
        <g
           id="g12">
          <path
             d="M 31,26.806 V 31 H 26.806 V 26.806 H 31 m 1,-1 H 25.806 V 32 H 32 Z"
             fill="#ffffff"
             id="path11" />
        </g>
        <g
           id="g13">
          <path
             d="M 5.194,26.806 V 31 H 1 v -4.194 h 4.194 m 1,-1 H 0 V 32 h 6.194 z"
             fill="#ffffff"
             id="path12" />
        </g>
      </g>
      <g
         display="none"
         id="g21">
        <line
           display="inline"
           fill="#ffffff"
           stroke="#ffffff"
           stroke-miterlimit="10"
           x1="26.709"
           y1="26.296"
           x2="16.319"
           y2="15.906"
           id="line14" />
        <line
           display="inline"
           fill="#ffffff"
           stroke="#ffffff"
           stroke-miterlimit="10"
           x1="5.289"
           y1="26.711"
           x2="26.372"
           y2="5.6279998"
           id="line15" />
        <g
           display="inline"
           id="g16">
          <rect
             x="26.306999"
             y="0.5"
             fill="#ffffff"
             width="5.1929998"
             height="5.1929998"
             id="rect15" />
          <g
             id="g15">
            <path
               d="M 31,1 V 5.194 H 26.806 V 1 H 31 M 32,0 H 25.806 V 6.194 H 32 Z"
               fill="#ffffff"
               id="path15" />
          </g>
        </g>
        <g
           display="inline"
           id="g18">
          <rect
             x="26.306999"
             y="26.306"
             fill="#ffffff"
             width="5.1929998"
             height="5.1939998"
             id="rect16" />
          <g
             id="g17">
            <path
               d="M 31,26.806 V 31 H 26.806 V 26.806 H 31 m 1,-1 H 25.806 V 32 H 32 Z"
               fill="#ffffff"
               id="path16" />
          </g>
        </g>
        <g
           display="inline"
           id="g20">
          <rect
             x="0.5"
             y="26.306"
             fill="#ffffff"
             width="5.1929998"
             height="5.1939998"
             id="rect18" />
          <g
             id="g19">
            <path
               d="M 5.194,26.806 V 31 H 1 v -4.194 h 4.194 m 1,-1 H 0 V 32 h 6.194 z"
               fill="#ffffff"
               id="path18" />
          </g>
        </g>
      </g>
      <g
         display="none"
         id="g24">
        <line
           display="inline"
           fill="#ffffff"
           stroke="#ffffff"
           stroke-miterlimit="10"
           x1="26.709"
           y1="26.296"
           x2="16.319"
           y2="15.906"
           id="line21" />
        <line
           display="inline"
           fill="#ffffff"
           stroke="#ffffff"
           stroke-miterlimit="10"
           x1="5.289"
           y1="26.711"
           x2="26.372"
           y2="5.6279998"
           id="line22" />
        <rect
           x="25.806"
           display="inline"
           fill="#ffffff"
           width="6.1939998"
           height="6.1939998"
           id="rect22"
           y="0" />
        <rect
           x="25.806"
           y="25.806"
           display="inline"
           fill="#ffffff"
           width="6.1939998"
           height="6.1939998"
           id="rect23" />
        <rect
           y="25.806"
           display="inline"
           fill="#ffffff"
           width="6.1939998"
           height="6.1939998"
           id="rect24"
           x="0" />
      </g>
      <desc
         id="desc24">Created with Snap</desc>
      <defs
         id="defs24" />
    </g>
    <g
       id="g27"
       transform="translate(-957.69953,-48.933553)">
      <g
         transform="scale(1.024,-1.024)"
         id="g26">
        <path
           d="M 499,0 H 39 v 53 h 78 V 510 H 39 v 53 H 277 V 510 H 199 V 53 h 234 v 173 h 66 z m 200,-11 q -61,0 -98,34 -37,34 -37,83 0,45 21,72 22,27 58,39 36,12 79,12 34,0 69,-6 36,-5 70,-14 l -30,-5 v 53 q 0,47 -25,69 -25,22 -68,22 -28,0 -66,-10 -37,-9 -69,-26 l -22,48 q 35,22 79,32 44,11 79,11 52,0 89,-17 37,-17 56,-49 20,-31 20,-73 V 53 h 62 V 0 H 839 l -6,56 h 28 Q 822,22 785,5 748,-11 699,-11 Z m 11,51 q 37,0 74,16 37,16 77,49 L 831,69 v 116 l 23,-18 q -26,8 -59,13 -33,5 -68,5 -35,0 -64,-16 -29,-15 -29,-59 0,-30 20,-50 20,-20 56,-20 z M 1223,0 h -220 v 53 h 76 v 287 h -76 v 53 h 149 v -54 l -28,-3 q 42,29 84,48 42,19 86,19 54,0 91,-34 38,-33 38,-97 V 53 h 73 V 0 h -211 v 53 h 65 v 205 q 0,41 -20,64 -20,23 -55,23 -36,0 -73,-16 -37,-16 -79,-44 l 29,32 V 53 h 71 z m 515,-10 q -62,0 -111,27 -48,27 -76,74 -27,47 -27,108 0,61 26,107 27,46 73,72 47,26 107,26 58,0 96,-26 38,-26 48,-64 h -14 v 81 h 62 V 254 h -56 q -9,43 -41,67 -31,25 -78,25 -43,0 -76,-19 -33,-18 -52,-51 -18,-33 -18,-75 0,-45 18,-80 19,-34 51,-54 33,-19 75,-19 53,0 85,20 33,21 60,52 l 31,-45 q -29,-38 -75,-62 -46,-23 -108,-23 z m 403,-1 q -61,0 -98,34 -37,34 -37,83 0,45 21,72 22,27 58,39 36,12 79,12 34,0 69,-6 36,-5 70,-14 l -30,-5 v 53 q 0,47 -25,69 -25,22 -68,22 -28,0 -66,-10 -37,-9 -69,-26 l -22,48 q 35,22 79,32 44,11 79,11 52,0 89,-17 37,-17 56,-49 20,-31 20,-73 V 53 h 62 V 0 h -127 l -6,56 h 28 q -39,-34 -76,-51 -37,-16 -86,-16 z m 11,51 q 37,0 74,16 37,16 77,49 l -30,-36 v 116 l 23,-18 q -26,8 -59,13 -33,5 -68,5 -35,0 -64,-16 -29,-15 -29,-59 0,-30 20,-50 20,-20 56,-20 z m 515,-50 q -31,0 -60,8 -28,8 -49,22 -21,14 -32,33 l 15,-9 V 0 h -58 v 136 h 52 l 6,-65 -14,47 q 11,-37 49,-57 39,-20 81,-20 38,0 63,15 26,15 26,42 0,32 -22,44 -21,13 -68,23 l -55,12 q -55,14 -87,37 -32,24 -32,79 0,53 41,81 42,29 104,29 24,0 50,-7 27,-6 49,-19 22,-13 31,-32 l -15,5 v 45 h 59 V 260 h -52 l -13,95 17,-66 q -4,18 -23,31 -18,14 -43,22 -24,8 -48,8 -32,0 -58,-13 -25,-13 -25,-42 0,-22 17,-34 18,-12 58,-22 l 51,-11 q 38,-9 68,-22 31,-12 49,-36 18,-23 18,-66 0,-39 -22,-65 -21,-25 -56,-37 -34,-12 -72,-12 z m 460,10 h -73 q -56,0 -85,28 -29,29 -29,88 v 224 h -65 v 53 h 65 v 134 l 74,29 V 393 h 104 V 340 H 3014 V 120 q 0,-37 12,-52 12,-15 41,-15 h 60 z m 267,0 h -211 v 53 h 73 v 468 h -71 v 52 h 145 V 53 h 64 z m 269,-12 q -62,0 -113,26 -50,26 -80,73 -29,47 -29,109 0,64 28,110 28,47 75,72 47,26 105,26 60,0 103,-25 44,-25 67,-71 23,-46 23,-108 v -19 h -336 l 1,46 h 262 q 0,39 -16,66 -15,28 -42,42 -27,15 -62,15 -37,0 -67,-18 -30,-17 -48,-50 -17,-32 -17,-78 0,-49 18,-85 18,-35 50,-55 33,-19 75,-19 45,0 83,18 38,18 66,45 l 26,-45 q -27,-31 -70,-53 -43,-22 -102,-22 z"
           fill="#ffffff"
           id="path25" />
      </g>
    </g>
    <g
       transform="translate(3026.3572,-33.7375)"
       id="g29">
      <g
         transform="scale(1.024,-1.024)"
         id="g28">
        <path
           d="M 154,0 H 60 v 94 h 94 z M 484,0 H 274 v 53 h 76 v 457 h -76 v 53 H 465 L 649,168 824,563 h 194 V 510 H 942 V 53 h 76 V 0 H 791 v 53 h 73 V 496 L 652,29 H 626 L 411,496 V 53 h 73 z m 828,0 h -219 v 53 h 76 v 287 h -76 v 53 h 149 V 276 l -14,2 q 11,45 28,71 18,26 40,37 23,12 47,12 20,0 40,-5 20,-5 40,-15 l -18,-67 q -17,11 -34,16 -17,6 -35,6 -38,0 -66,-32 -27,-31 -27,-90 l -1,-158 h 70 z m 382,0 h -222 v 53 h 72 l 163,457 h -63 v 53 h 275 v -53 h -65 L 2022,53 h 68 V 0 h -229 v 53 h 75 l -57,164 H 1675 L 1619,53 h 75 z m 81,509 -84,-239 h 172 l -82,239 z"
           fill="#ffffff"
           id="path27" />
      </g>
    </g>
  </g>
  <path
     style="fill:#11181c;fill-opacity:1;stroke-width:0.281804"
     d=""
     id="path1"
     transform="translate(-2057.2161,-893.95201)" />
  <path
     style="fill:#11181c;fill-opacity:1;stroke-width:0.281804"
     d="M 0,28.884863 V 0 H 175 350 V 28.884863 57.769726 H 175 0 Z m 234.99313,11.53542 c 1.56215,-0.501109 3.36064,-1.552989 4.20973,-2.462132 0.61906,-0.662844 0.6316,-0.748017 0.22167,-1.506288 -0.91121,-1.685495 -0.88725,-1.675404 -1.98661,-0.83688 -2.62047,1.998731 -5.66066,2.753429 -8.16225,2.026195 -2.47432,-0.719303 -4.18077,-2.607192 -4.79445,-5.304221 l -0.17634,-0.77496 h 7.93614 7.93613 l -0.15647,-2.282834 c -0.28781,-4.199171 -2.36758,-7.130804 -5.88837,-8.300221 -1.05892,-0.351719 -2.10442,-0.442015 -4.13737,-0.357334 -2.43528,0.101441 -2.90601,0.212797 -4.49158,1.062548 -2.07633,1.112761 -3.24669,2.352267 -4.25909,4.510714 -0.6437,1.372392 -0.733,1.923254 -0.733,4.521716 0,2.662804 0.0781,3.118046 0.78073,4.548735 2.245,4.57149 8.35439,6.870108 13.70113,5.154962 z m 14.96661,-1.672296 v -2.39533 h -2.39533 -2.39533 v 2.39533 2.39533 h 2.39533 2.39533 z m 16.34461,0.986313 v -1.409018 h -1.83173 -1.83172 l 0.005,-10.35628 0.005,-10.356281 5.10155,11.060789 c 4.86396,10.545644 5.13679,11.06079 5.85798,11.06079 0.72235,0 0.97635,-0.485303 5.64141,-10.778986 2.68677,-5.928442 4.93051,-10.831824 4.98611,-10.896404 0.0556,-0.06458 0.10111,4.468935 0.10111,10.074476 v 10.191896 h -1.69082 -1.69082 v 1.409018 1.409017 h 5.63607 5.63607 V 39.7343 38.325282 h -1.83172 -1.83172 V 27.334944 16.344605 h 1.83172 1.83172 V 14.935588 13.52657 h -4.89227 -4.89228 l -4.17135,9.441208 -4.17135,9.441208 -1.16411,-2.466571 c -0.64026,-1.356613 -2.61688,-5.604719 -4.39249,-9.440234 l -3.22838,-6.973665 -4.86112,-9.73e-4 -4.86111,-9.73e-4 v 1.409018 1.409017 h 1.83173 1.83172 v 10.990339 10.990338 h -1.83172 -1.83173 v 1.409018 1.409017 h 5.35427 5.35427 z m 40.2979,0 v -1.409018 h -1.69082 -1.69082 l 0.0123,-4.438406 c 0.0147,-5.300229 0.37604,-6.730807 2.03623,-8.062045 0.86458,-0.693245 1.31414,-0.847988 2.41534,-0.831376 0.74419,0.01123 1.77077,0.236417 2.28131,0.500423 1.09058,0.56396 1.24572,0.442012 1.67056,-1.313111 0.45503,-1.879716 0.46839,-1.852429 -1.14003,-2.330075 -2.7402,-0.813752 -4.99035,-0.288389 -6.51246,1.520523 l -0.76329,0.907133 V 22.98861 21.698873 h -3.80435 -3.80434 v 1.409017 1.409018 h 1.83172 1.83172 v 6.904187 6.904187 h -1.83172 -1.83172 v 1.409018 1.409017 h 5.49517 5.49516 z m 18.59904,0 v -1.409018 h -1.69082 c -0.92995,0 -1.69082,-0.09883 -1.69082,-0.219615 0,-0.12079 0.55013,-1.864449 1.22252,-3.874799 l 1.22254,-3.655184 h 4.87814 4.87816 l 1.3606,3.874799 1.36058,3.874799 h -1.82519 -1.82521 v 1.409018 1.409017 h 5.77697 5.77697 v -1.39557 -1.395573 l -1.71759,-0.08389 -1.71762,-0.0839 -3.91845,-10.667357 c -2.15518,-5.867046 -3.91848,-10.780996 -3.91848,-10.919887 0,-0.138892 0.63406,-0.252531 1.40902,-0.252531 h 1.40902 V 14.935588 13.52657 h -6.76329 -6.76328 v 1.409018 1.409017 h 1.40901 c 0.77496,0 1.40612,0.0317 1.40257,0.07045 -0.004,0.03875 -1.7542,4.952698 -3.8903,10.919888 l -3.88384,10.849436 -1.74578,0.0839 -1.74577,0.08389 v 1.395573 1.39557 h 5.49517 5.49517 z M 91.287564,39.937409 c 1.765865,-0.916163 1.989409,-0.938986 1.989409,-0.203109 0,0.530934 0.18787,0.563607 3.24074,0.563607 h 3.240741 v -1.409018 -1.409018 h -1.549919 -1.54992 l -0.0028,-5.847423 c -0.0026,-5.589081 -0.03284,-5.912046 -0.683763,-7.310097 -1.306224,-2.805505 -3.8959,-3.93475 -8.436865,-3.678949 -2.446613,0.137823 -5.977267,1.107809 -6.71402,1.844562 -0.247111,0.247111 0.696029,2.592551 1.042509,2.592551 0.07108,0 1.063544,-0.313634 2.205465,-0.696966 3.127487,-1.049861 4.893891,-1.183298 6.464898,-0.488367 1.558723,0.689497 2.065468,1.553952 2.341584,3.994495 l 0.20218,1.787051 -0.675398,-0.198243 c -0.371468,-0.109033 -1.948258,-0.272335 -3.503974,-0.362892 -3.219287,-0.187397 -5.518854,0.297979 -7.105296,1.499733 -2.389471,1.810058 -2.658498,5.783561 -0.55387,8.180599 1.473316,1.678016 2.714281,2.100515 5.865642,1.997026 2.288473,-0.07515 2.932259,-0.206835 4.18261,-0.855542 z m 49.880606,0.387027 c 1.89507,-0.589812 4.65737,-2.49572 4.94904,-3.414707 0.12715,-0.400609 -0.0476,-0.889183 -0.55678,-1.55677 -0.40815,-0.535108 -0.83757,-0.972927 -0.95427,-0.972927 -0.1167,0 -0.6492,0.454952 -1.18333,1.011007 -1.35181,1.407299 -2.91754,2.140574 -4.9081,2.298604 -2.25192,0.178776 -3.88013,-0.29943 -5.25803,-1.544278 -1.80062,-1.62675 -2.3492,-2.927367 -2.3492,-5.569681 0,-1.777411 0.13052,-2.500344 0.61682,-3.416645 1.26951,-2.391999 3.66473,-3.629856 6.65522,-3.439435 2.31011,0.147096 3.80303,1.068571 4.68586,2.892236 l 0.62288,1.286711 h 1.52478 1.52478 v -3.522545 -3.522544 h -1.69082 -1.69082 v 1.000654 1.000654 l -0.93103,-0.710132 c -1.59149,-1.21389 -2.82194,-1.572979 -5.38993,-1.572979 -3.30024,0 -5.14684,0.714171 -7.22815,2.795491 -2.23698,2.236978 -2.88643,4.048634 -2.73569,7.63124 0.13316,3.164541 0.70083,4.663445 2.5091,6.62519 2.72737,2.958847 7.46845,4.045149 11.78767,2.700856 z m 20.63661,-0.490133 1.59946,-0.868561 0.16718,0.666082 c 0.1636,0.651857 0.23628,0.666083 3.40255,0.666083 h 3.23537 v -1.409018 -1.409018 h -1.53022 -1.53021 l -0.0902,-6.152346 -0.0901,-6.152347 -0.84541,-1.356005 c -1.27301,-2.041855 -3.21772,-3.035956 -6.2505,-3.195136 -1.29533,-0.06799 -3.1331,0.02944 -4.08394,0.216505 -1.70492,0.335422 -4.74205,1.514116 -4.74205,1.840362 0,0.0922 0.26255,0.682285 0.58345,1.311301 0.422,0.827186 0.71443,1.101345 1.05677,0.990734 0.26032,-0.08411 1.23418,-0.425634 2.16413,-0.758938 1.04447,-0.374351 2.44489,-0.620598 3.66344,-0.644174 3.38616,-0.06552 4.64976,1.112515 4.64976,4.33488 0,1.527696 -0.0581,1.712655 -0.48662,1.548231 -1.0183,-0.390757 -5.87588,-0.50555 -7.45372,-0.176144 -1.84042,0.384222 -3.6733,1.591877 -4.32308,2.848405 -0.63534,1.228613 -0.83226,3.384159 -0.42257,4.625538 0.46137,1.397954 1.85432,2.940541 3.24315,3.591538 0.91269,0.427809 1.64378,0.512319 3.80677,0.440045 2.36303,-0.07896 2.8648,-0.191365 4.2766,-0.958017 z m 24.01258,0.628261 c 2.84408,-0.855944 4.21582,-2.605834 4.21582,-5.378023 0,-1.746855 -0.45822,-2.996465 -1.41689,-3.864051 -0.8598,-0.77811 -3.44466,-1.806772 -5.86669,-2.334688 -3.26492,-0.711633 -4.83711,-1.438055 -5.16825,-2.387959 -1.03006,-2.954854 4.46209,-4.24408 7.73652,-1.816069 0.63756,0.472751 0.92739,0.96291 1.06009,1.792805 l 0.18265,1.142168 h 1.40568 1.40569 v -3.381642 -3.381643 h -1.54992 c -1.36205,0 -1.54992,0.06832 -1.54992,0.563607 0,0.688435 0.0868,0.690573 -1.41457,-0.03483 -1.49633,-0.722949 -5.22185,-1.025252 -6.92652,-0.562044 -1.51493,0.411651 -2.90516,1.368994 -3.6993,2.547431 -0.8136,1.207296 -0.88717,3.895024 -0.14717,5.376338 0.63812,1.277376 2.65569,2.365707 5.74771,3.100468 5.60521,1.331975 6.43985,1.790176 6.43985,3.535372 0,1.933882 -1.84824,2.880999 -5.05471,2.590248 -2.87304,-0.260519 -4.80841,-1.611835 -4.80841,-3.357334 V 33.534622 H 175 173.59098 v 3.381642 3.381643 h 1.54992 c 1.39015,0 1.54992,-0.06144 1.54992,-0.596018 0,-0.557821 0.0417,-0.568696 0.65065,-0.169696 1.95849,1.283249 5.87493,1.713146 8.47589,0.930371 z M 76.932367,34.661836 v -5.636071 h -1.690821 -1.690821 v 4.227053 4.227053 H 67.914654 62.278583 V 26.489533 15.499195 h 1.972625 1.972625 V 14.090177 12.681159 H 60.165056 54.10628 v 1.409018 1.409018 h 1.972625 1.972625 V 26.489533 37.479871 H 56.078905 54.10628 v 1.409018 1.409018 h 11.413044 11.413043 z m 35.225443,4.227053 v -1.409018 h -1.69643 -1.69642 l 0.076,-5.980823 0.0761,-5.980826 1.63844,-0.810822 c 2.07539,-1.027055 4.50567,-1.297702 5.77209,-0.642807 1.59991,0.827341 1.74808,1.485571 1.74808,7.765213 v 5.650065 h -1.54992 -1.54991 v 1.409018 1.409018 h 5.35426 5.35427 v -1.409018 -1.409018 h -1.83172 -1.83173 l -0.006,-6.129227 c -0.007,-6.899147 -0.16745,-7.628914 -2.03893,-9.272103 -1.37335,-1.205809 -2.69912,-1.585814 -5.09394,-1.460064 -1.53781,0.08075 -2.48085,0.32309 -3.95337,1.015926 -1.0636,0.500434 -1.98298,0.90988 -2.04308,0.90988 -0.0601,0 -0.10926,-0.380434 -0.10926,-0.84541 v -0.845411 h -3.80435 -3.80435 v 1.54992 1.549919 h 1.97263 1.97262 v 6.763285 6.763285 h -1.97262 -1.97263 v 1.409018 1.409018 h 5.49517 5.49517 z m 92.99517,0 v -1.409018 h -2.09307 c -1.92554,0 -2.13983,-0.05944 -2.67714,-0.742513 -0.54948,-0.698557 -0.58406,-1.098938 -0.58406,-6.763285 v -6.020772 h 2.53623 2.53624 v -1.549919 -1.54992 h -2.53624 -2.53623 v -3.975399 c 0,-3.672635 -0.0376,-3.960524 -0.49315,-3.780077 -0.27124,0.107428 -1.15892,0.447136 -1.97263,0.754906 l -1.47947,0.559583 v 3.220494 3.220493 h -1.54992 -1.54992 v 1.54992 1.549919 h 1.54992 1.54992 l 0.0124,6.129227 c 0.0128,6.316914 0.20078,7.64063 1.25,8.800009 0.97929,1.082106 2.14932,1.402291 5.14866,1.408953 l 2.88849,0.0064 z m 13.24477,0 v -1.409018 h -1.54992 -1.54992 V 24.798712 12.117552 h -3.80435 -3.80435 v 1.409018 1.409018 h 1.83172 1.83173 v 11.272141 11.272142 h -1.83173 -1.83172 v 1.409018 1.409018 h 5.35427 5.35427 z M 19.726248,37.546408 v -2.187895 l 3.804272,-3.79644 3.804273,-3.796443 3.663521,3.655389 3.663522,3.655389 v 2.328946 2.328946 h 2.536232 2.536232 v -2.536232 -2.536232 l -1.902174,-0.0023 -1.902174,-0.0023 -3.882743,-3.860574 -3.882743,-3.860571 3.596873,-3.604875 3.596873,-3.604876 h 2.188044 2.188044 v -2.677134 -2.677133 h -2.536232 -2.536232 v 2.182155 2.182155 l -7.959096,7.962772 -7.959096,7.962773 h -2.185832 -2.185831 v 2.536232 2.536232 h 2.677133 2.677134 z"
     id="path2"
     transform="translate(-2057.2161,-893.95201)" />
  <path
     style="fill:#11181c;fill-opacity:1;stroke-width:0.281804"
     d=""
     id="path3"
     transform="translate(-2057.2161,-893.95201)" />
  <path
     style="fill:#11181c;fill-opacity:1;stroke-width:0.281804"
     d="m 36.423108,35.587207 c 0.426228,-0.06457 1.123692,-0.06457 1.549919,0 0.426228,0.06457 0.0775,0.117396 -0.774959,0.117396 -0.852456,0 -1.201188,-0.05283 -0.77496,-0.117396 z"
     id="path4"
     transform="translate(-2057.2161,-893.95201)" />
  <path
     style="fill:#11181c;fill-opacity:1;stroke-width:0.281804"
     d="M 35.78905,37.198068 V 35.78905 h 1.409018 1.409017 v 1.409018 1.409017 H 37.198068 35.78905 Z"
     id="path5"
     transform="translate(-2057.2161,-893.95201)" />
  <path
     style="fill:#11181c;fill-opacity:1;stroke-width:0.281804"
     d="M 0,28.884863 V 0 H 175 350 V 28.884863 57.769726 H 175 0 Z m 234.99313,11.53542 c 1.56215,-0.501109 3.36064,-1.552989 4.20973,-2.462132 0.61906,-0.662844 0.6316,-0.748017 0.22167,-1.506288 -0.89239,-1.650692 -0.87797,-1.644273 -1.91593,-0.85258 -2.60094,1.983835 -5.74787,2.764321 -8.23293,2.041895 -2.47432,-0.719303 -4.18077,-2.607192 -4.79445,-5.304221 l -0.17634,-0.77496 h 7.93614 7.93613 l -0.15346,-2.239042 c -0.26022,-3.796417 -1.90636,-6.463429 -4.89857,-7.936424 -1.19228,-0.586937 -1.76938,-0.673971 -4.46892,-0.673971 -2.7641,0 -3.27222,0.08082 -4.69145,0.746205 -2.02688,0.950268 -3.75701,2.680398 -4.70727,4.707268 -0.65864,1.40484 -0.74621,1.938846 -0.74621,4.550553 0,2.662804 0.0781,3.118046 0.78073,4.548735 2.245,4.57149 8.35439,6.870108 13.70113,5.154962 z m 14.96661,-1.672296 v -2.39533 h -2.39533 -2.39533 v 2.39533 2.39533 h 2.39533 2.39533 z m 16.34461,0.986313 v -1.409018 h -1.83173 -1.83172 l 0.004,-10.35628 0.004,-10.356281 5.00199,10.821417 c 2.75109,5.951778 5.22198,10.960188 5.49087,11.129797 0.33887,0.213754 0.6301,0.219311 0.94908,0.01811 0.2531,-0.159653 2.46997,-4.724222 4.92637,-10.143487 2.4564,-5.419264 4.65063,-10.233643 4.87608,-10.698618 0.36693,-0.756893 0.41174,0.224186 0.42786,9.369967 l 0.018,10.215379 h -1.69082 -1.69082 v 1.409018 1.409017 h 5.63607 5.63607 V 39.7343 38.325282 h -1.83172 -1.83172 V 27.334944 16.344605 h 1.83172 1.83172 V 14.935588 13.52657 h -4.88977 -4.88977 l -4.17081,9.447607 -4.17081,9.447605 -1.16555,-2.472967 c -0.64104,-1.360133 -2.61903,-5.608981 -4.39553,-9.441885 l -3.22999,-6.968915 -4.86112,-0.0057 -4.86111,-0.0057 v 1.409018 1.409017 h 1.83173 1.83172 v 10.990339 10.990338 h -1.83172 -1.83173 v 1.409018 1.409017 h 5.35427 5.35427 z m 40.2979,0 v -1.409018 h -1.69082 -1.69082 l 0.007,-4.297504 c 0.009,-5.806351 0.33709,-6.999655 2.33398,-8.490537 0.94562,-0.706014 3.08482,-0.725793 4.40952,-0.04077 1.09999,0.568829 1.22593,0.449068 1.72779,-1.642909 0.27003,-1.125549 0.25946,-1.416153 -0.0586,-1.613705 -0.51452,-0.319519 -2.89719,-0.824379 -3.85395,-0.816599 -1.18546,0.0096 -2.98537,0.955281 -3.80975,2.001601 l -0.74943,0.951147 -0.003,-1.338566 -0.003,-1.338567 h -3.80435 -3.80434 v 1.409017 1.409018 h 1.83172 1.83172 v 6.904187 6.904187 h -1.83172 -1.83172 v 1.409018 1.409017 h 5.49517 5.49516 z m 18.59904,0 v -1.409018 h -1.69082 c -0.92995,0 -1.69082,-0.09883 -1.69082,-0.219615 0,-0.12079 0.55013,-1.864449 1.22252,-3.874799 l 1.22254,-3.655184 h 4.87814 4.87816 l 1.3606,3.874799 1.36058,3.874799 h -1.82519 -1.82521 v 1.409018 1.409017 h 5.77697 5.77697 v -1.39557 -1.395573 l -1.72176,-0.08389 -1.72176,-0.0839 -3.78215,-10.285829 c -2.08016,-5.657206 -3.85535,-10.571156 -3.94485,-10.919888 -0.15296,-0.59603 -0.0764,-0.634058 1.27685,-0.634058 h 1.43957 V 14.935588 13.52657 h -6.76329 -6.76328 v 1.409018 1.409017 h 1.40901 c 0.77496,0 1.40536,0.0317 1.40088,0.07045 -0.004,0.03875 -1.74862,4.952698 -3.87587,10.919888 l -3.86773,10.849436 -1.7602,0.0839 -1.7602,0.08389 v 1.395573 1.39557 h 5.49517 5.49517 z M 91.240948,39.935175 c 1.746708,-0.913328 2.036025,-0.941872 2.036025,-0.200875 0,0.530934 0.18787,0.563607 3.24074,0.563607 h 3.240741 V 38.888889 37.479871 H 98.223789 96.68912 l -0.0857,-6.152391 -0.08571,-6.152393 -0.854101,-1.385853 c -0.613726,-0.99582 -1.287865,-1.623784 -2.39533,-2.231263 -1.44878,-0.7947 -1.727166,-0.845411 -4.641068,-0.845411 -3.130378,0 -6.290534,0.674641 -7.530168,1.607564 -0.456891,0.343849 -0.452748,0.436549 0.07129,1.595374 0.422158,0.93353 0.675128,1.192223 1.048686,1.072412 0.270774,-0.08685 1.222391,-0.412372 2.114705,-0.723392 2.638546,-0.919676 4.684307,-1.040842 6.206314,-0.367585 1.547874,0.684698 2.061788,1.554645 2.33264,3.948658 l 0.197192,1.742964 -1.374919,-0.210944 C 90.936749,29.261592 89.049919,29.167182 87.5,29.167811 c -2.449132,9.95e-4 -3.024273,0.09771 -4.393464,0.738796 -1.866695,0.874025 -2.707774,1.943289 -3.124113,3.971688 -0.40624,1.97918 0.04515,3.599702 1.407749,5.053899 1.446712,1.543962 2.742831,1.954998 5.840263,1.852111 2.122708,-0.07051 2.79273,-0.21237 4.010513,-0.84913 z m 51.101422,-0.10845 c 1.89116,-0.885085 3.91367,-2.557482 3.91367,-3.236184 0,-0.22004 -0.3704,-0.839126 -0.8231,-1.375742 l -0.82311,-0.975669 -1.21997,1.167022 c -1.62994,1.559199 -2.82845,2.120997 -4.87068,2.283133 -2.25624,0.179126 -3.88382,-0.298379 -5.26248,-1.54392 -1.80062,-1.62675 -2.3492,-2.927367 -2.3492,-5.569681 0,-1.777411 0.13052,-2.500344 0.61682,-3.416645 1.26951,-2.391999 3.66473,-3.629856 6.65522,-3.439435 2.34078,0.14905 3.94048,1.139809 4.73295,2.931311 l 0.55189,1.247636 h 1.53673 1.53673 v -3.522545 -3.522544 h -1.69082 -1.69082 v 1.000654 1.000654 l -0.93103,-0.710132 c -1.59149,-1.21389 -2.82194,-1.572979 -5.38993,-1.572979 -4.21242,0 -7.40581,1.860205 -9.09359,5.29717 -0.71911,1.464387 -0.78915,1.88214 -0.78915,4.706855 0,3.549248 0.42697,4.844305 2.26955,6.883824 2.23915,2.478471 4.74607,3.440548 8.61146,3.30482 2.29858,-0.08071 2.98128,-0.222678 4.50886,-0.937603 z m 19.48458,-0.0044 1.62163,-0.880565 0.17019,0.67809 c 0.16731,0.666603 0.22455,0.678087 3.38038,0.678087 h 3.21019 v -1.409018 -1.409018 h -1.53022 -1.53021 l -0.0902,-6.152346 -0.0901,-6.152347 -0.84541,-1.356005 c -0.58757,-0.942443 -1.31812,-1.622959 -2.39533,-2.231308 -1.48495,-0.838611 -1.68578,-0.875305 -4.79066,-0.875305 -2.64328,0 -3.58384,0.118604 -5.10173,0.643329 -1.02355,0.353832 -2.08403,0.806419 -2.35664,1.00575 -0.46939,0.343228 -0.46317,0.426055 0.11738,1.564025 0.4627,0.906979 0.7296,1.156546 1.08851,1.017842 2.49905,-0.96577 4.11632,-1.346438 5.82977,-1.372194 3.37592,-0.05075 4.64976,1.128975 4.64976,4.306199 v 1.697771 l -0.91586,-0.204308 c -0.50372,-0.112369 -2.3742,-0.200514 -4.1566,-0.195881 -2.81375,0.0073 -3.41734,0.09505 -4.58107,0.665918 -1.59622,0.78302 -2.61738,1.917597 -3.01523,3.350106 -0.83521,3.007312 0.43342,5.817984 3.22834,7.152456 0.91874,0.438661 1.62235,0.521658 3.80435,0.448747 2.3717,-0.07925 2.86214,-0.189919 4.29877,-0.970025 z m 24.08309,0.587541 c 2.8947,-0.969632 4.096,-2.531466 4.096,-5.325295 0,-3.585601 -1.63137,-4.897568 -7.91039,-6.361644 -3.00181,-0.699933 -4.11157,-1.222085 -4.52477,-2.128952 -0.71904,-1.578127 1.13573,-3.202961 3.6572,-3.203813 2.72937,-9.22e-4 4.86063,1.275567 5.14988,3.084447 l 0.18265,1.142168 h 1.40568 1.40569 v -3.381642 -3.381643 h -1.54992 c -1.38828,0 -1.54992,0.06192 -1.54992,0.593757 0,0.459167 -0.11178,0.545231 -0.49315,0.37968 -2.85316,-1.238542 -5.75656,-1.590447 -7.9941,-0.968919 -1.39315,0.386977 -2.78535,1.370311 -3.55314,2.509643 -0.82885,1.229926 -0.8921,3.930186 -0.12554,5.35952 0.68874,1.284233 2.75052,2.409528 5.69933,3.11063 5.62482,1.337343 6.4666,1.796669 6.4666,3.528572 0,1.07796 -0.68031,1.957565 -1.86132,2.406582 -1.24414,0.473021 -4.08694,0.308276 -5.46557,-0.316736 -1.89855,-0.860721 -2.53623,-1.575654 -2.53623,-2.843476 V 33.534622 H 175 173.59098 v 3.381642 3.381643 h 1.54992 c 1.3686,0 1.54992,-0.06678 1.54992,-0.570844 0,-0.554068 0.0269,-0.556819 0.91586,-0.09354 2.43428,1.268634 5.87364,1.590195 8.30336,0.776312 z m -108.977673,-5.748 v -5.636071 h -1.690821 -1.690821 v 4.227053 4.227053 H 67.914654 62.278583 V 26.489533 15.499195 h 1.972625 1.972625 V 14.090177 12.681159 H 60.165056 54.10628 v 1.409018 1.409018 h 1.972625 1.972625 V 26.489533 37.479871 H 56.078905 54.10628 v 1.409018 1.409018 h 11.413044 11.413043 z m 35.225443,4.227053 v -1.409018 h -1.69643 -1.69642 l 0.076,-5.988325 0.0761,-5.988325 1.66337,-0.805582 c 2.10256,-1.018282 4.49302,-1.28159 5.74716,-0.633046 1.59991,0.827341 1.74808,1.485571 1.74808,7.765213 v 5.650065 h -1.54992 -1.54991 v 1.409018 1.409018 h 5.35426 5.35427 v -1.409018 -1.409018 h -1.83172 -1.83173 l -0.002,-5.847423 c -8.7e-4,-3.252492 -0.13425,-6.325239 -0.30055,-6.924133 -0.40542,-1.459991 -2.00313,-3.156419 -3.51739,-3.734721 -1.90594,-0.727886 -4.88854,-0.450035 -7.30433,0.680451 -1.04632,0.489631 -1.95156,0.890238 -2.01166,0.890238 -0.0601,0 -0.10926,-0.380434 -0.10926,-0.84541 v -0.845411 h -3.80435 -3.80435 v 1.54992 1.549919 h 1.97263 1.97262 v 6.763285 6.763285 h -1.97262 -1.97263 v 1.409018 1.409018 h 5.49517 5.49517 z m 92.99517,0 v -1.409018 h -2.09307 c -1.92554,0 -2.13983,-0.05944 -2.67714,-0.742513 -0.54948,-0.698557 -0.58406,-1.098938 -0.58406,-6.763285 v -6.020772 h 2.53623 2.53624 v -1.549919 -1.54992 h -2.53624 -2.53623 v -3.975399 c 0,-3.673818 -0.0374,-3.960346 -0.49315,-3.776972 -0.27124,0.109136 -1.15892,0.457331 -1.97263,0.773769 l -1.47947,0.575339 v 3.201632 3.201631 h -1.54992 -1.54992 v 1.54992 1.549919 h 1.53119 1.53118 l 0.0892,6.551932 c 0.10265,7.541576 0.23196,8.019039 2.48022,9.158616 1.04397,0.529156 1.70729,0.634058 4.00925,0.634058 h 2.75833 z m 13.24477,0 v -1.409018 h -1.54992 -1.54992 V 24.798712 12.117552 h -3.80435 -3.80435 v 1.409018 1.409018 h 1.83172 1.83173 v 11.272141 11.272142 h -1.83173 -1.83172 v 1.409018 1.409018 h 5.35427 5.35427 z M 19.726248,37.546408 v -2.187895 l 3.804272,-3.79644 3.804273,-3.796443 3.663521,3.655389 3.663522,3.655389 v 2.328946 2.328946 h 2.536232 2.536232 v -2.536232 -2.536232 h -1.979949 -1.979946 l -3.854949,-3.812828 -3.854948,-3.812829 3.646853,-3.654966 3.646851,-3.654965 h 2.188044 2.188044 v -2.677134 -2.677133 h -2.536232 -2.536232 v 2.182155 2.182155 l -7.959096,7.962772 -7.959096,7.962773 h -2.185832 -2.185831 v 2.536232 2.536232 h 2.677133 2.677134 z"
     id="path6"
     transform="translate(-2057.2161,-893.95201)" />
  <path
     style="fill:#11181c;fill-opacity:1;stroke-width:0.281804"
     d="M 0,28.884863 V 0 H 175 350 V 28.884863 57.769726 H 175 0 Z m 236.25071,11.03435 c 0.79782,-0.371445 1.94335,-1.108643 2.54562,-1.638217 1.08743,-0.956156 1.09191,-0.968674 0.64437,-1.797853 -0.91002,-1.686061 -0.89148,-1.677579 -1.9321,-0.88386 -2.60094,1.983835 -5.74787,2.764321 -8.23293,2.041895 -2.47432,-0.719303 -4.18077,-2.607192 -4.79445,-5.304221 l -0.17634,-0.77496 h 7.89587 7.89587 v -1.520235 c 0,-0.83613 -0.26556,-2.389573 -0.59014,-3.452094 -0.49859,-1.632179 -0.84422,-2.180809 -2.2281,-3.536702 -2.09041,-2.048143 -3.75183,-2.600866 -7.29899,-2.428242 -4.12626,0.200805 -7.10552,2.09362 -8.72191,5.541309 -0.65864,1.40484 -0.74621,1.938846 -0.74621,4.550553 0,2.57232 0.0905,3.14304 0.69246,4.367955 1.48361,3.018871 4.83919,5.34182 8.27907,5.731323 2.36427,0.267708 5.02383,-0.08464 6.76791,-0.896651 z m 13.70903,-1.171226 v -2.39533 h -2.39533 -2.39533 v 2.39533 2.39533 h 2.39533 2.39533 z m 16.34461,0.986313 v -1.409018 h -1.83173 -1.83172 V 27.992484 c 0,-5.683037 0.0426,-10.279957 0.0947,-10.215377 0.0521,0.06458 1.78276,3.794954 3.84598,8.289721 5.4228,11.813703 6.37878,13.667472 7.04819,13.667472 0.6897,0 0.94924,-0.50763 6.33959,-12.399356 2.28331,-5.037239 4.20073,-9.211454 4.26095,-9.276034 0.0602,-0.06458 0.10948,4.468935 0.10948,10.074476 v 10.191896 h -1.69082 -1.69082 v 1.409018 1.409017 h 5.63607 5.63607 V 39.7343 38.325282 h -1.83172 -1.83172 V 27.334944 16.344605 h 1.83172 1.83172 V 14.935588 13.52657 h -4.87339 -4.8734 l -4.19549,9.457745 -4.19548,9.457746 -1.2984,-2.764913 C 272.08,28.156449 270.10574,23.903386 268.40689,20.2259 l -3.08883,-6.686339 -4.86112,-0.0065 -4.86111,-0.0065 v 1.409018 1.409017 h 1.83173 1.83172 v 10.990339 10.990338 h -1.83172 -1.83173 v 1.409018 1.409017 h 5.35427 5.35427 z m 40.2979,0 v -1.409018 h -1.69082 -1.69082 l 0.002,-4.438406 c 0.002,-4.994737 0.22291,-6.146066 1.44855,-7.542017 1.46254,-1.665747 3.04255,-1.819477 5.92938,-0.576913 0.38731,0.16671 0.55687,-0.07007 0.91586,-1.278881 0.59824,-2.014528 0.57423,-2.139756 -0.47532,-2.47828 -2.94459,-0.949755 -5.1244,-0.582896 -6.76328,1.13825 l -1.05677,1.109801 v -1.279981 -1.279982 h -3.80435 -3.80434 v 1.409017 1.409018 h 1.83172 1.83172 v 6.904187 6.904187 h -1.83172 -1.83172 v 1.409018 1.409017 h 5.49517 5.49516 z m 18.59904,0 v -1.409018 h -1.69082 c -0.92995,0 -1.69082,-0.09883 -1.69082,-0.219615 0,-0.12079 0.55013,-1.864449 1.22252,-3.874799 l 1.22254,-3.655184 h 4.88822 4.88823 l 1.35051,3.874799 1.35049,3.874799 h -1.82519 -1.82518 v 1.409018 1.409017 h 5.77697 5.77697 v -1.39557 -1.395573 l -1.72525,-0.08389 -1.72526,-0.0839 -3.78068,-10.285829 c -2.07937,-5.657206 -3.85299,-10.571156 -3.94136,-10.919888 -0.15099,-0.595765 -0.0738,-0.634058 1.27888,-0.634058 h 1.43957 V 14.935588 13.52657 h -6.76329 -6.76328 v 1.409018 1.409017 h 1.42801 c 1.23514,0 1.40566,0.0666 1.26256,0.493157 -0.091,0.271236 -1.84477,5.185185 -3.89731,10.919887 l -3.73193,10.426731 -1.75772,0.0839 -1.75772,0.08389 v 1.395573 1.39557 h 5.49517 5.49517 z M 91.22453,39.926811 c 1.759063,-0.904742 2.052443,-0.93226 2.052443,-0.192511 0,0.530934 0.18787,0.563607 3.24074,0.563607 h 3.240741 v -1.409018 -1.409018 h -1.530216 -1.530215 l -0.09016,-6.152346 -0.09015,-6.152347 -0.84541,-1.356005 c -1.263435,-2.026498 -3.225084,-3.038244 -6.174727,-3.184694 -2.580371,-0.128117 -5.751323,0.43498 -7.664262,1.361018 l -1.226319,0.593651 0.431813,1.034331 c 0.237499,0.568882 0.523648,1.12644 0.63589,1.239017 0.112245,0.112578 1.146016,-0.113993 2.297271,-0.503491 3.069802,-1.038587 4.95961,-1.172687 6.558566,-0.465392 1.56255,0.691189 2.068833,1.553887 2.345135,3.996064 l 0.20218,1.787051 -0.675398,-0.189017 c -1.490688,-0.417182 -6.091584,-0.537109 -7.514055,-0.195862 -3.363351,0.806855 -4.985967,2.707507 -4.967433,5.818607 0.01173,1.968392 0.684972,3.327587 2.233158,4.508445 1.364586,1.040822 2.224966,1.235331 5.064074,1.144852 2.098769,-0.06688 2.789802,-0.211243 4.006334,-0.836942 z m 50.82901,0.02198 c 1.74246,-0.815917 3.23163,-1.8826 3.83915,-2.749946 0.38047,-0.543199 0.35233,-0.694201 -0.31814,-1.707358 -0.40454,-0.611299 -0.82883,-1.107426 -0.94288,-1.102506 -0.11404,0.0049 -0.65119,0.459408 -1.19367,1.009967 -1.38682,1.407505 -2.94798,2.133879 -4.92327,2.290697 -2.25192,0.178776 -3.88013,-0.29943 -5.25803,-1.544278 -1.80062,-1.62675 -2.3492,-2.927367 -2.3492,-5.569681 0,-1.777411 0.13052,-2.500344 0.61682,-3.416645 1.26951,-2.391999 3.66473,-3.629856 6.65522,-3.439435 2.34078,0.14905 3.94048,1.139809 4.73295,2.931311 l 0.55189,1.247636 h 1.53673 1.53673 v -3.522545 -3.522544 h -1.69082 -1.69082 v 0.967256 0.967256 l -1.41244,-0.950502 c -1.6317,-1.098057 -3.11523,-1.39298 -6.05723,-1.204174 -3.58863,0.230305 -6.63572,2.302276 -8.12509,5.524927 -0.87586,1.895168 -0.87662,6.910099 -0.001,8.819907 1.17519,2.56417 3.73218,4.714689 6.55847,5.515901 2.09116,0.592814 6.09158,0.317928 7.93496,-0.545244 z m 19.77341,-0.128077 1.62163,-0.878982 0.17019,0.67809 c 0.16731,0.666603 0.22455,0.678087 3.38038,0.678087 h 3.21019 v -1.409018 -1.409018 h -1.54992 -1.54992 l -0.002,-5.56562 c -8.6e-4,-3.061091 -0.13612,-6.050139 -0.30056,-6.642329 -0.37009,-1.332786 -1.96215,-3.13361 -3.483,-3.939716 -2.32039,-1.229899 -9.61046,-0.608409 -11.81627,1.007356 -0.50932,0.373084 -0.50671,0.420167 0.0881,1.586102 0.4627,0.906979 0.7296,1.156546 1.08851,1.017842 2.49905,-0.96577 4.11632,-1.346438 5.82977,-1.372194 3.39,-0.05096 4.64976,1.125797 4.64976,4.343395 0,1.536894 -0.0563,1.713264 -0.49315,1.544869 -0.27124,-0.104549 -1.76388,-0.262387 -3.31698,-0.35075 -5.44636,-0.309862 -8.54572,1.410129 -9.04007,5.016794 -0.26562,1.937918 0.31512,3.593449 1.74177,4.965336 1.55925,1.499395 2.45855,1.768537 5.61326,1.679955 2.23022,-0.06262 2.73189,-0.177274 4.15787,-0.950199 z m 25.03431,0.144278 c 0.87924,-0.402929 1.84643,-1.102554 2.18869,-1.583215 1.18493,-1.664081 1.26018,-4.937052 0.14883,-6.473253 -0.79713,-1.101866 -3.18027,-2.201458 -6.59008,-3.0407 -3.59941,-0.885903 -4.61409,-1.343891 -5.03782,-2.273877 -0.71904,-1.578127 1.13573,-3.202961 3.6572,-3.203813 2.72937,-9.22e-4 4.86063,1.275567 5.14988,3.084447 l 0.18265,1.142168 h 1.40568 1.40569 v -3.381642 -3.381643 h -1.54992 c -1.38828,0 -1.54992,0.06192 -1.54992,0.593757 0,0.459241 -0.11172,0.545214 -0.49315,0.379486 -2.41165,-1.047833 -3.69137,-1.308773 -5.84743,-1.192321 -4.24617,0.229344 -6.34058,2.081001 -6.34058,5.605685 0,3.16424 1.73294,4.557102 7.29415,5.862717 4.62308,1.085372 5.38701,1.565532 5.38701,3.385935 0,0.949376 -0.74045,1.858052 -1.86132,2.284206 -1.24414,0.473021 -4.08694,0.308276 -5.46557,-0.316736 -1.89855,-0.860721 -2.53623,-1.575654 -2.53623,-2.843476 V 33.534622 H 175 173.59098 v 3.381642 3.381643 h 1.54992 c 1.3686,0 1.54992,-0.06678 1.54992,-0.570844 0,-0.554068 0.0269,-0.556819 0.91586,-0.09354 2.79188,1.454999 6.51212,1.588245 9.25458,0.331466 z M 76.932367,34.661836 v -5.636071 h -1.690821 -1.690821 v 4.227053 4.227053 H 67.914654 62.278583 V 26.489533 15.499195 h 1.972625 1.972625 V 14.090177 12.681159 H 60.165056 54.10628 v 1.409018 1.409018 h 1.972625 1.972625 V 26.489533 37.479871 H 56.078905 54.10628 v 1.409018 1.409018 h 11.413044 11.413043 z m 35.225443,4.227053 v -1.409018 h -1.69643 -1.69642 l 0.076,-5.988325 0.0761,-5.988325 1.69082,-0.826182 c 2.09292,-1.022659 4.44338,-1.272465 5.72702,-0.608668 1.59193,0.823216 1.74077,1.486879 1.74077,7.761435 v 5.650065 h -1.54992 -1.54991 v 1.409018 1.409018 h 5.35426 5.35427 v -1.409018 -1.409018 h -1.83172 -1.83173 l -0.002,-5.847423 c -8.6e-4,-3.216083 -0.13459,-6.326434 -0.29717,-6.91189 -0.39156,-1.409981 -1.68515,-2.840446 -3.25661,-3.601174 -1.87729,-0.908784 -4.94339,-0.693771 -7.55865,0.530057 -1.05173,0.492163 -1.9614,0.894842 -2.0215,0.894842 -0.0601,0 -0.10926,-0.380434 -0.10926,-0.84541 v -0.845411 h -3.80435 -3.80435 v 1.54992 1.549919 h 1.97263 1.97262 v 6.763285 6.763285 h -1.97262 -1.97263 v 1.409018 1.409018 h 5.49517 5.49517 z m 92.99517,0 v -1.409018 h -2.09307 c -1.92554,0 -2.13983,-0.05944 -2.67714,-0.742513 -0.54948,-0.698557 -0.58406,-1.098938 -0.58406,-6.763285 v -6.020772 h 2.53623 2.53624 v -1.549919 -1.54992 h -2.53624 -2.53623 v -3.75738 c 0,-2.06656 -0.0704,-3.827821 -0.15653,-3.913914 -0.0861,-0.08609 -0.97378,0.167713 -1.97263,0.564013 l -1.81609,0.720546 v 3.193367 3.193368 h -1.54992 -1.54992 v 1.54992 1.549919 h 1.52722 1.52722 l 0.0931,6.551932 c 0.10722,7.54112 0.23699,8.01958 2.48419,9.158616 1.04397,0.529156 1.70729,0.634058 4.00925,0.634058 h 2.75833 z m 13.24477,0 v -1.409018 h -1.54992 -1.54992 V 24.798712 12.117552 h -3.80435 -3.80435 v 1.409018 1.409018 h 1.83172 1.83173 v 11.272141 11.272142 h -1.83173 -1.83172 v 1.409018 1.409018 h 5.35427 5.35427 z M 19.726248,37.546408 v -2.187895 l 3.804272,-3.79644 3.804273,-3.796443 3.663521,3.655389 3.663522,3.655389 v 2.328946 2.328946 h 2.536232 2.536232 v -2.536232 -2.536232 h -2.04699 -2.046993 l -3.796441,-3.804272 -3.796443,-3.804273 3.655389,-3.663521 3.65539,-3.663522 h 2.188044 2.188044 v -2.677134 -2.677133 h -2.536232 -2.536232 v 2.182155 2.182155 l -7.959096,7.962772 -7.959096,7.962773 h -2.185832 -2.185831 v 2.536232 2.536232 h 2.677133 2.677134 z"
     id="path7"
     transform="translate(-2057.2161,-893.95201)" />
  <path
     style="fill:#11181c;fill-opacity:1;stroke-width:0.281804"
     d="M 0,28.884863 V 0 H 175 350 V 28.884863 57.769726 H 175 0 Z m 249.95974,9.863124 v -2.39533 h -2.39533 -2.39533 v 2.39533 2.39533 h 2.39533 2.39533 z m 16.34461,0.986313 v -1.409018 h -1.83173 -1.83172 V 27.992484 c 0,-5.683037 0.0444,-10.279957 0.0987,-10.215377 0.0542,0.06458 1.84638,3.921766 3.9825,8.571524 5.4638,11.893214 6.23394,13.385669 6.90727,13.385669 0.68472,0 0.71763,-0.06433 6.19953,-12.117553 2.36147,-5.19223 4.34249,-9.493257 4.40226,-9.557837 0.0598,-0.06458 0.10866,4.468935 0.10866,10.074476 v 10.191896 h -1.69082 -1.69082 v 1.409018 1.409017 h 5.63607 5.63607 V 39.7343 38.325282 h -1.83172 -1.83172 V 27.334944 16.344605 h 1.83172 1.83172 V 14.935588 13.52657 h -4.87683 -4.87687 l -4.19217,9.484855 -4.19218,9.484855 -1.29866,-2.792022 c -0.71427,-1.53561 -2.68846,-5.800872 -4.3871,-9.478358 l -3.08842,-6.686339 -4.86112,-0.0065 -4.86111,-0.0065 v 1.409018 1.409017 h 1.83173 1.83172 v 10.990339 10.990338 h -1.83172 -1.83173 v 1.409018 1.409017 h 5.35427 5.35427 z m 40.2979,0 v -1.409018 h -1.69082 -1.69082 l 0.002,-4.438406 c 0.002,-4.994737 0.22291,-6.146066 1.44855,-7.542017 1.4631,-1.666366 3.04089,-1.819514 5.93225,-0.575811 0.39309,0.169082 0.55944,-0.07385 0.93477,-1.364932 0.25114,-0.863842 0.37922,-1.695806 0.28468,-1.848807 -0.20234,-0.327374 -2.80907,-1.138938 -3.65096,-1.136668 -1.31473,0.0035 -2.79654,0.662139 -3.84194,1.707548 l -1.10893,1.108916 v -1.268116 -1.268116 h -3.80435 -3.80434 v 1.409017 1.409018 h 1.83172 1.83172 v 6.904187 6.904187 h -1.83172 -1.83172 v 1.409018 1.409017 h 5.49517 5.49516 z m 18.59904,0 v -1.409018 h -1.69082 c -0.92995,0 -1.69082,-0.09883 -1.69082,-0.219615 0,-0.12079 0.55013,-1.864449 1.22252,-3.874799 l 1.22254,-3.655184 h 4.90136 4.90132 l 1.33431,3.874799 1.33431,3.874799 h -1.82211 -1.82211 v 1.409018 1.409017 h 5.77697 5.77697 v -1.39557 -1.395573 l -1.73112,-0.08389 -1.73112,-0.0839 -3.89362,-10.567633 c -2.14148,-5.812198 -3.89872,-10.726147 -3.90495,-10.919887 -0.008,-0.236347 0.45229,-0.352255 1.39769,-0.352255 h 1.40902 V 14.935588 13.52657 h -6.76329 -6.76328 v 1.409018 1.409017 h 1.42801 c 1.23393,0 1.40594,0.06702 1.26575,0.493157 -0.0892,0.271236 -1.84145,5.185185 -3.8938,10.919887 l -3.73153,10.426731 -1.76127,0.0839 -1.76127,0.08389 v 1.395573 1.39557 h 5.49517 5.49517 z M 91.127048,39.930612 c 1.979882,-0.909411 2.149925,-0.924938 2.149925,-0.196312 0,0.530934 0.18787,0.563607 3.24074,0.563607 h 3.240741 v -1.409018 -1.409018 h -1.549919 -1.54992 l -0.01237,-5.706522 C 96.633081,25.699992 96.47145,24.722818 95.22071,23.155031 94.849118,22.689245 93.930035,21.966019 93.178305,21.54786 90.664434,20.149491 85.396787,20.349627 81.939233,21.97487 l -1.297706,0.609993 0.425989,1.036474 c 0.234294,0.57006 0.512676,1.128582 0.618626,1.241159 0.10595,0.112578 1.134572,-0.113993 2.285827,-0.503491 3.069802,-1.038587 4.95961,-1.172687 6.558566,-0.465392 1.557424,0.688922 2.068892,1.554391 2.341246,3.961705 l 0.198297,1.752692 -1.235119,-0.220671 c -0.679316,-0.12137 -2.57575,-0.220672 -4.214294,-0.220672 -2.759983,0 -3.101687,0.06267 -4.644359,0.851765 -1.198324,0.612962 -1.835958,1.156215 -2.274298,1.937661 -1.37357,2.448715 -1.043127,5.165285 0.859769,7.068183 1.485445,1.485443 2.573596,1.828547 5.515518,1.739091 1.901137,-0.05781 2.736664,-0.229619 4.049753,-0.832755 z m 49.252672,0.547508 c 2.10305,-0.495002 4.38899,-1.874873 5.56021,-3.356325 0.33857,-0.428254 0.29286,-0.635636 -0.35625,-1.616521 -0.40956,-0.618883 -0.83796,-1.121215 -0.95201,-1.116295 -0.11404,0.0049 -0.65119,0.459408 -1.19367,1.009967 -1.38682,1.407505 -2.94798,2.133879 -4.92327,2.290697 -2.59676,0.206153 -3.98922,-0.2895 -5.67554,-2.02023 -1.66116,-1.704906 -2.25613,-3.469452 -2.00154,-5.936166 0.37872,-3.669444 3.02735,-6.041375 6.76198,-6.05556 2.70603,-0.01028 4.47278,1.002708 5.42264,3.109117 0.49305,1.093383 0.52623,1.111747 2.00845,1.111747 h 1.50712 v -3.522545 -3.522544 h -1.69082 -1.69082 v 1.01976 1.019759 l -0.99286,-0.757292 c -1.63351,-1.24594 -3.237,-1.647662 -6.00232,-1.503764 -3.90292,0.203095 -6.84601,2.032906 -8.41774,5.233571 -0.72396,1.474267 -0.78988,1.872302 -0.78008,4.710188 0.0123,3.555848 0.4458,4.876994 2.25885,6.883824 2.63761,2.919519 6.79737,4.044907 11.15767,3.018612 z m 21.35148,-0.643177 1.72676,-0.855857 0.1655,0.659409 c 0.1614,0.64307 0.24505,0.659412 3.37569,0.659412 h 3.21019 v -1.409018 -1.409018 h -1.54992 -1.54992 l -0.002,-5.56562 c -8.6e-4,-3.061091 -0.13619,-6.05042 -0.30073,-6.642953 -0.17386,-0.6261 -0.85188,-1.648293 -1.6188,-2.440519 -1.76024,-1.818323 -3.66513,-2.402625 -7.08725,-2.173924 -2.42457,0.162034 -5.63464,0.98258 -6.59706,1.686315 -0.50384,0.368419 -0.50083,0.420233 0.0921,1.582494 0.4627,0.906979 0.7296,1.156546 1.08851,1.017842 2.49905,-0.96577 4.11632,-1.346438 5.82977,-1.372194 3.38064,-0.05082 4.64976,1.127917 4.64976,4.318613 v 1.710184 l -0.77496,-0.208262 c -0.42623,-0.114544 -2.23329,-0.212068 -4.0157,-0.216721 -2.9304,-0.0077 -3.39394,0.06336 -4.84057,0.741507 -3.68521,1.727543 -4.42289,6.205114 -1.5033,9.1247 1.5308,1.530794 2.46342,1.821314 5.53893,1.725419 2.0544,-0.06406 2.70617,-0.209958 4.16255,-0.931809 z m 25.20728,0.07128 c 2.32908,-1.139512 2.85621,-2.038566 2.85621,-4.871464 0,-1.900035 -0.10378,-2.443772 -0.59161,-3.099839 -0.8377,-1.126597 -3.10561,-2.178525 -6.56645,-3.045727 -3.6353,-0.910922 -4.64305,-1.367524 -5.06575,-2.295244 -0.71904,-1.578127 1.13573,-3.202961 3.6572,-3.203813 2.72937,-9.22e-4 4.86063,1.275567 5.14988,3.084447 l 0.18265,1.142168 h 1.40568 1.40569 v -3.381642 -3.381643 h -1.54992 c -1.36205,0 -1.54992,0.06832 -1.54992,0.563607 0,0.689546 0.0779,0.691009 -1.55011,-0.02912 -1.86442,-0.824726 -5.28707,-1.036135 -7.04996,-0.43546 -2.85182,0.971712 -4.08198,2.574711 -4.08003,5.316635 0.002,2.739353 1.54712,4.233258 5.49411,5.311794 6.89393,1.883797 7.18599,2.037648 7.18599,3.785422 0,1.07796 -0.68031,1.957565 -1.86132,2.406582 -1.24414,0.473021 -4.08694,0.308276 -5.46557,-0.316736 -1.89855,-0.860721 -2.53623,-1.575654 -2.53623,-2.843476 V 33.534622 H 175 173.59098 v 3.381642 3.381643 h 1.54992 c 1.36725,0 1.54992,-0.0671 1.54992,-0.569334 v -0.569336 l 1.12284,0.572831 c 2.69798,1.376404 6.51847,1.449321 9.12482,0.174151 z m 49.23192,0.02782 c 0.86293,-0.415598 2.0643,-1.183817 2.66971,-1.707155 l 1.10075,-0.951523 -0.76046,-1.149136 -0.76046,-1.149138 -1.64944,1.101451 c -1.53896,1.027676 -4.19045,1.96494 -5.55875,1.96494 -1.30558,0 -3.59809,-0.922408 -4.64644,-1.86953 -0.95823,-0.865703 -2.24969,-3.357542 -2.24969,-4.340718 0,-0.167349 3.03767,-0.271233 7.93117,-0.271233 h 7.93118 l -0.16408,-2.043076 c -0.0902,-1.123692 -0.37383,-2.644695 -0.63021,-3.380009 -0.598,-1.715103 -2.50278,-3.830445 -4.25496,-4.725305 -1.2163,-0.621179 -1.72583,-0.701047 -4.47252,-0.701047 -2.81967,0 -3.24409,0.07084 -4.69588,0.783782 -2.03031,0.997043 -3.66822,2.634959 -4.66526,4.665268 -0.70856,1.442855 -0.78298,1.880029 -0.77537,4.554976 0.007,2.556652 0.10214,3.150502 0.69778,4.367955 1.21291,2.479091 3.54501,4.380191 6.62069,5.39711 0.71826,0.237479 2.14962,0.34282 3.94525,0.290356 2.37443,-0.06938 3.06502,-0.201289 4.38699,-0.837968 z M 76.932367,34.661836 v -5.636071 h -1.690821 -1.690821 v 4.227053 4.227053 H 67.914654 62.278583 V 26.489533 15.499195 h 1.972625 1.972625 V 14.090177 12.681159 H 60.165056 54.10628 v 1.409018 1.409018 h 1.972625 1.972625 V 26.489533 37.479871 H 56.078905 54.10628 v 1.409018 1.409018 h 11.413044 11.413043 z m 35.225443,4.227053 v -1.409018 h -1.69643 -1.69642 l 0.076,-5.988325 0.0761,-5.988325 1.69082,-0.826182 c 1.86355,-0.91058 4.30579,-1.24204 5.56549,-0.755345 0.42616,0.164649 1.02804,0.714661 1.33751,1.222248 0.51337,0.84199 0.56278,1.42309 0.56374,6.629407 l 0.001,5.706522 h -1.54992 -1.54991 v 1.409018 1.409018 h 5.35426 5.35427 v -1.409018 -1.409018 h -1.80866 -1.80866 l -0.0935,-6.432357 -0.0935,-6.432358 -0.77736,-1.173932 c -0.42755,-0.645663 -1.30625,-1.523747 -1.95266,-1.951298 -1.07203,-0.709063 -1.39989,-0.776065 -3.73149,-0.762557 -2.26535,0.01312 -2.77707,0.117331 -4.49735,0.915861 -1.06764,0.495579 -1.98702,0.901053 -2.04308,0.901053 -0.0561,0 -0.10192,-0.380434 -0.10192,-0.84541 v -0.845411 h -3.80435 -3.80435 v 1.54992 1.549919 h 1.97263 1.97262 v 6.763285 6.763285 h -1.97262 -1.97263 v 1.409018 1.409018 h 5.49517 5.49517 z m 92.99517,0 v -1.409018 h -2.09307 c -1.92554,0 -2.13983,-0.05944 -2.67714,-0.742513 -0.54948,-0.698557 -0.58406,-1.098938 -0.58406,-6.763285 v -6.020772 h 2.53623 2.53624 v -1.549919 -1.54992 h -2.53624 -2.53623 v -3.804348 c 0,-4.317993 0.12075,-4.154885 -2.37025,-3.201631 l -1.575,0.602716 v 3.201632 3.201631 h -1.54992 -1.54992 v 1.54992 1.549919 h 1.52316 1.52315 l 0.0973,6.411031 c 0.087,5.728775 0.15731,6.530988 0.66083,7.538244 0.8853,1.771003 2.40656,2.395331 5.83655,2.395331 h 2.75833 z m 13.24477,0 v -1.409018 h -1.54992 -1.54992 V 24.798712 12.117552 h -3.80435 -3.80435 v 1.409018 1.409018 h 1.83172 1.83173 v 11.272141 11.272142 h -1.83173 -1.83172 v 1.409018 1.409018 h 5.35427 5.35427 z M 19.726248,37.546408 v -2.187895 l 3.804272,-3.79644 3.804273,-3.796443 3.663521,3.655389 3.663522,3.655389 v 2.328946 2.328946 h 2.536232 2.536232 v -2.536232 -2.536232 h -2.04699 -2.046993 l -3.796441,-3.804272 -3.796443,-3.804273 3.655389,-3.663521 3.65539,-3.663522 h 2.188044 2.188044 v -2.677134 -2.677133 h -2.536232 -2.536232 v 2.182155 2.182155 l -7.959096,7.962772 -7.959096,7.962773 h -2.185832 -2.185831 v 2.536232 2.536232 h 2.677133 2.677134 z"
     id="path8"
     transform="translate(-2057.2161,-893.95201)" />
  <path
     style="fill:#11181c;fill-opacity:1;stroke-width:0.281804"
     d="M 0,28.884863 V 0 H 175 350 V 28.884863 57.769726 H 175 0 Z m 249.95974,9.863124 v -2.39533 h -2.39533 -2.39533 v 2.39533 2.39533 h 2.39533 2.39533 z m 16.34461,0.986313 v -1.409018 h -1.83173 -1.83172 V 27.992484 c 0,-5.683037 0.0468,-10.279957 0.1039,-10.215377 0.0571,0.06458 2.0896,4.429012 4.51657,9.698738 4.77972,10.378295 5.41448,11.625366 6.15094,12.084308 0.38142,0.237696 0.57468,0.183049 0.90099,-0.254781 0.22848,-0.306563 2.40642,-4.932385 4.83987,-10.279607 2.43347,-5.347222 4.59087,-10.039251 4.79425,-10.426731 0.31151,-0.593484 0.37156,0.90536 0.38108,9.510869 l 0.0113,10.215379 h -1.69082 -1.69082 v 1.409018 1.409017 h 5.63607 5.63607 V 39.7343 38.325282 h -1.83172 -1.83172 V 27.334944 16.344605 h 1.83172 1.83172 V 14.935588 13.52657 h -4.86939 -4.86943 l -4.19511,9.486256 -4.19512,9.486255 -1.44206,-3.075224 c -0.79314,-1.691374 -2.76935,-5.956023 -4.39159,-9.476997 l -2.94953,-6.401772 -4.86112,-0.0093 -4.86111,-0.0093 v 1.409018 1.409017 h 1.83173 1.83172 V 27.334862 38.3252 h -1.83172 -1.83173 v 1.409018 1.409017 h 5.35427 5.35427 z m 40.2979,0 v -1.409018 h -1.69082 -1.69082 l 0.002,-4.438406 c 0.002,-4.994737 0.22291,-6.146066 1.44855,-7.542017 1.21432,-1.38302 2.65882,-1.724393 4.6485,-1.09856 0.8959,0.281797 1.62921,0.377452 1.75789,0.229302 0.12142,-0.139801 0.38136,-0.817481 0.57761,-1.505956 0.43161,-1.514133 0.18137,-1.786304 -2.11502,-2.300211 -2.04429,-0.457489 -3.7926,0.03916 -5.24276,1.489321 l -1.07635,1.07635 v -1.268116 -1.268116 h -3.80435 -3.80434 v 1.409017 1.409018 h 1.83172 1.83172 v 6.904187 6.904187 h -1.83172 -1.83172 v 1.409018 1.409017 h 5.49517 5.49516 z m 18.59904,0 v -1.409018 h -1.69082 c -0.92995,0 -1.69082,-0.09883 -1.69082,-0.219615 0,-0.12079 0.55013,-1.864449 1.22252,-3.874799 l 1.22254,-3.655184 h 4.90668 4.90671 l 1.32808,3.804348 c 0.73044,2.092392 1.33279,3.836051 1.33857,3.874799 0.006,0.03875 -0.81379,0.07045 -1.82124,0.07045 h -1.83172 v 1.409018 1.409017 h 5.77697 5.77697 v -1.39557 -1.395573 l -1.74061,-0.08389 -1.74062,-0.0839 -3.88491,-10.567633 c -2.13672,-5.812198 -3.88968,-10.726147 -3.89546,-10.919887 -0.007,-0.236241 0.45351,-0.352255 1.39848,-0.352255 h 1.40902 v -1.40902 -1.409018 h -6.76329 -6.76328 v 1.409018 1.409017 h 1.43917 c 1.03323,0 1.40225,0.09936 1.30833,0.352255 -0.0719,0.19374 -1.82916,5.137295 -3.90493,10.985677 l -3.77414,10.633423 -1.76127,0.0047 -1.76127,0.0047 v 1.409018 1.409017 h 5.49517 5.49517 z M 91.17088,39.908045 c 1.933274,-0.88508 2.000335,-0.890406 2.187745,-0.173745 0.136213,0.52088 0.384383,0.563607 3.273608,0.563607 h 3.126221 v -1.409018 -1.409018 h -1.526099 -1.526098 l -0.09589,-6.129227 c -0.107117,-6.846777 -0.160138,-7.06526 -2.151103,-8.863978 -1.592669,-1.43888 -2.810128,-1.778724 -6.254756,-1.745968 -2.347607,0.02232 -3.360347,0.168197 -4.901821,0.70605 -2.349545,0.819805 -2.634826,1.177234 -2.052318,2.571367 0.42127,1.008242 0.456172,1.026904 1.368339,0.731651 4.508442,-1.459312 6.225564,-1.632976 8.032892,-0.812421 1.43921,0.653423 2.006703,1.660919 2.250753,3.995859 0.181006,1.731751 0.17876,1.738846 -0.496738,1.570908 -0.373209,-0.09279 -1.819867,-0.25406 -3.214795,-0.358389 -5.88222,-0.439938 -9.194342,1.631744 -9.233372,5.775335 -0.02509,2.663416 1.322031,4.578778 3.895399,5.538559 1.720292,0.641613 5.301336,0.371704 7.318033,-0.551572 z m 50.65074,0.115729 c 0.96949,-0.366914 2.216,-1.158774 3.0919,-1.964162 l 1.46754,-1.349411 -0.78522,-1.186545 -0.78522,-1.186548 -1.17947,1.010497 c -1.87002,1.602129 -3.23074,2.202131 -5.33699,2.353324 -2.55138,0.183144 -4.03618,-0.396413 -5.66937,-2.212921 -3.3667,-3.744575 -1.91002,-10.13792 2.61901,-11.494851 3.52863,-1.057203 6.71597,0.17154 7.90762,3.04845 0.33324,0.804512 0.4477,0.856944 1.87069,0.856944 h 1.51573 v -3.522545 -3.522544 h -1.69082 -1.69082 v 1.01976 1.019759 l -0.99286,-0.757292 c -1.61478,-1.231648 -3.24747,-1.648801 -5.90693,-1.509216 -4.0103,0.210487 -6.99008,2.123691 -8.65956,5.559961 -0.84175,1.73257 -0.90671,6.172576 -0.12322,8.421008 0.56939,1.633996 2.76099,4.132998 4.34126,4.950189 2.75339,1.423832 6.95864,1.619725 10.00673,0.466143 z m 19.92667,-0.197299 1.65968,-0.822616 0.2948,0.647024 c 0.28152,0.61786 0.4348,0.647024 3.40069,0.647024 h 3.10588 v -1.409018 -1.409018 h -1.54992 -1.54992 V 32.10949 c 0,-2.983496 -0.13827,-5.919507 -0.3111,-6.605891 -0.40122,-1.593385 -1.87244,-3.298943 -3.56445,-4.132207 -1.15076,-0.566712 -1.75154,-0.657365 -4.29675,-0.648342 -2.98831,0.01059 -6.20802,0.720942 -7.37661,1.627466 -0.44021,0.341489 -0.43542,0.449105 0.0702,1.578478 0.42449,0.948138 0.65004,1.170502 1.03602,1.021377 2.51933,-0.973362 4.13015,-1.353242 5.84766,-1.379059 3.38064,-0.05082 4.64976,1.127917 4.64976,4.318613 v 1.710184 l -0.77496,-0.203355 c -0.42623,-0.111848 -2.23329,-0.209372 -4.0157,-0.216721 -2.99645,-0.01236 -3.36237,0.04636 -4.85431,0.778992 -1.87979,0.923093 -2.62486,1.844266 -3.0774,3.804785 -0.46035,1.994309 0.0676,3.757306 1.57732,5.267004 1.50319,1.503185 2.57076,1.830409 5.59153,1.71387 2.05174,-0.07915 2.7633,-0.237062 4.13756,-0.918209 z m 25.33937,6.08e-4 c 2.14087,-1.084605 2.92411,-2.536604 2.78965,-5.171554 -0.16389,-3.211521 -1.57134,-4.327598 -7.27909,-5.772131 -3.61197,-0.914129 -4.60721,-1.367358 -5.02734,-2.289453 -1.04455,-2.29254 2.74397,-3.988567 6.19203,-2.77202 1.65162,0.582725 2.40803,1.357979 2.62032,2.685597 l 0.17738,1.109225 h 1.40568 1.40569 v -3.381642 -3.381643 h -1.4354 c -1.21156,0 -1.45903,0.09038 -1.58695,0.579545 -0.10592,0.40503 -0.28891,0.520887 -0.60768,0.384748 -2.15695,-0.921178 -2.92728,-1.081636 -5.24678,-1.092889 -2.1095,-0.01023 -2.76274,0.09923 -3.88246,0.6506 -1.97493,0.972489 -2.83606,2.246682 -2.95531,4.372936 -0.17506,3.121294 1.31492,4.723567 5.42875,5.837889 6.74753,1.827719 7.18599,2.050899 7.18599,3.657678 0,1.931921 -1.3383,2.803635 -4.28845,2.793321 -3.12185,-0.01091 -5.57467,-1.517707 -5.57467,-3.424575 V 33.534622 H 175 173.59098 v 3.381642 3.381643 h 1.4354 c 1.18999,0 1.46016,-0.0947 1.58024,-0.553866 0.14389,-0.550229 0.15202,-0.550207 1.23736,0.0035 1.68785,0.861073 3.01986,1.102683 5.43933,0.986619 1.74447,-0.08368 2.56547,-0.279433 3.80435,-0.907072 z m 49.14788,0.04228 c 0.89874,-0.441958 2.10011,-1.206409 2.6697,-1.698782 l 1.03562,-0.895225 -0.76046,-1.149136 -0.76046,-1.149138 -1.64944,1.101451 c -1.53896,1.027676 -4.19045,1.96494 -5.55875,1.96494 -1.30558,0 -3.59809,-0.922408 -4.64644,-1.86953 -0.95823,-0.865703 -2.24969,-3.357542 -2.24969,-4.340718 0,-0.167349 3.03767,-0.271233 7.93117,-0.271233 h 7.93118 l -0.16408,-2.043076 c -0.0902,-1.123692 -0.37169,-2.638396 -0.62544,-3.366011 -0.60615,-1.738059 -2.39159,-3.731355 -4.18863,-4.676263 -1.31267,-0.690217 -1.72528,-0.759371 -4.54362,-0.761521 -2.817,-0.0022 -3.24446,0.06865 -4.68485,0.775922 -1.8766,0.921464 -3.99321,3.082576 -4.8356,4.937269 -0.49483,1.08947 -0.60353,1.863237 -0.6024,4.288269 10e-4,2.674668 0.0756,3.101995 0.77423,4.44803 2.0269,3.905301 5.50569,5.765376 10.47583,5.601324 2.4169,-0.07977 3.05065,-0.207396 4.45213,-0.896572 z M 76.932367,34.661836 v -5.636071 h -1.690821 -1.690821 v 4.227053 4.227053 H 67.914654 62.278583 V 26.489533 15.499195 h 1.972625 1.972625 V 14.090177 12.681159 H 60.165056 54.10628 v 1.409018 1.409018 h 1.972625 1.972625 V 26.489533 37.479871 H 56.078905 54.10628 v 1.409018 1.409018 h 11.413044 11.413043 z m 35.225443,4.227053 v -1.409018 h -1.69643 -1.69642 l 0.076,-5.988325 0.0761,-5.988325 1.67236,-0.835366 c 1.87297,-0.935576 4.71391,-1.293366 5.77225,-0.726961 0.33932,0.181599 0.86331,0.734225 1.16442,1.228057 0.49441,0.810845 0.54758,1.451015 0.54853,6.604398 l 0.001,5.706522 h -1.54992 -1.54991 v 1.409018 1.409018 h 5.35426 5.35427 v -1.409018 -1.409018 h -1.83172 -1.83173 l -0.007,-5.706522 c -0.008,-6.402214 -0.16476,-7.457345 -1.32476,-8.890553 -1.30909,-1.617428 -2.66637,-2.171767 -5.2909,-2.160906 -2.2055,0.0091 -2.63936,0.128667 -6.27013,1.727569 -0.2395,0.105472 -0.35225,-0.125124 -0.35225,-0.720436 v -0.875561 h -3.80435 -3.80435 v 1.54992 1.549919 h 1.97263 1.97262 v 6.763285 6.763285 h -1.97262 -1.97263 v 1.409018 1.409018 h 5.49517 5.49517 z m 92.99517,0 v -1.409018 h -2.09307 c -1.92554,0 -2.13983,-0.05944 -2.67714,-0.742513 -0.54948,-0.698557 -0.58406,-1.098938 -0.58406,-6.763285 v -6.020772 h 2.53623 2.53624 v -1.549919 -1.54992 h -2.53624 -2.53623 v -3.646815 c 0,-2.272212 -0.11296,-3.716626 -0.29967,-3.832023 -0.16482,-0.101865 -1.0525,0.09633 -1.97263,0.440433 l -1.67295,0.625641 v 3.206382 3.206382 h -1.54992 -1.54992 v 1.54992 1.549919 h 1.51978 1.51978 l 0.11028,6.411031 c 0.0938,5.453284 0.18613,6.566434 0.61803,7.451291 0.92038,1.885663 2.23709,2.422865 6.02481,2.458063 l 2.60668,0.02422 z m 13.24477,0 v -1.409018 h -1.54992 -1.54992 V 24.798712 12.117552 h -3.80435 -3.80435 v 1.409018 1.409018 h 1.83172 1.83173 v 11.272141 11.272142 h -1.83173 -1.83172 v 1.409018 1.409018 h 5.35427 5.35427 z M 19.726248,37.546408 v -2.187895 l 3.804272,-3.79644 3.804273,-3.796443 3.663521,3.655389 3.663522,3.655389 v 2.328946 2.328946 h 2.536232 2.536232 v -2.536232 -2.536232 h -2.04699 -2.046993 l -3.796441,-3.804272 -3.796443,-3.804273 3.655389,-3.663521 3.65539,-3.663522 h 2.188044 2.188044 v -2.677134 -2.677133 h -2.536232 -2.536232 v 2.182155 2.182155 l -7.959096,7.962772 -7.959096,7.962773 h -2.185832 -2.185831 v 2.536232 2.536232 h 2.677133 2.677134 z"
     id="path9"
     transform="translate(-2057.2161,-893.95201)" />
  <path
     style="fill:#11181c;fill-opacity:1;stroke-width:0.281804"
     d="m 38.694408,17.049114 c 0.0016,-0.929951 0.05419,-1.276412 0.116909,-0.769913 0.06272,0.5065 0.06142,1.26737 -0.0029,1.690822 -0.0643,0.423452 -0.115615,0.009 -0.114033,-0.920909 z"
     id="path13"
     transform="translate(-2057.2161,-893.95201)" />
  <path
     style="fill:#11181c;fill-opacity:1;stroke-width:0.281804"
     d="m 39.552524,17.049114 c -8.59e-4,-1.394927 0.04679,-2.001109 0.105894,-1.347069 0.0591,0.654039 0.0598,1.795343 0.0016,2.536232 -0.05824,0.740888 -0.106598,0.205765 -0.107456,-1.189163 z"
     id="path14"
     transform="translate(-2057.2161,-893.95201)" />
  <path
     style="fill:#11181c;fill-opacity:1;stroke-width:0.281804"
     d="m 14.653784,37.198068 v -2.254429 h 2.185832 2.185831 l 7.959096,-7.962772 7.959096,-7.962773 v -2.182155 -2.182155 h 2.254429 2.254428 v 2.39533 2.39533 h -2.187893 -2.187892 l -3.729916,3.737609 -3.729915,3.737608 4.01916,4.011989 4.019159,4.011989 h 1.898649 1.898648 v 2.254429 2.254428 h -2.254428 -2.254429 v -2.328795 -2.328794 l -3.804418,-3.796587 -3.804418,-3.796587 -3.945179,3.937628 -3.94518,3.937629 v 2.187753 2.187753 h -2.39533 -2.39533 z m 4.227053,0 v -1.690822 h -1.831723 -1.831723 v 1.690822 1.690821 h 1.831723 1.831723 z m 20.008052,0 v -1.690822 h -1.690821 -1.690822 v 1.690822 1.690821 h 1.690822 1.690821 z m 0,-20.148954 v -1.831723 h -1.690821 -1.690822 v 1.831723 1.831723 h 1.690822 1.690821 z"
     id="path17"
     transform="translate(-2057.2161,-893.95201)" />
  <path
     style="fill:#ffffff;fill-opacity:1;stroke-width:0.281804"
     d="M 0,28.884863 V 0 H 175 350 V 28.884863 57.769726 H 175 0 Z m 249.95974,9.863124 v -2.39533 h -2.39533 -2.39533 v 2.39533 2.39533 h 2.39533 2.39533 z m 16.34461,0.986313 v -1.409018 h -1.83173 -1.83172 l 0.018,-10.35628 c 0.0161,-9.239314 0.0619,-10.2651 0.4251,-9.51087 0.22389,0.464976 2.43244,5.214345 4.90789,10.554154 2.47545,5.339811 4.75007,9.957996 5.05471,10.262637 0.48153,0.481529 0.61592,0.502411 1.02869,0.159842 0.26114,-0.21673 0.8855,-1.28419 1.38746,-2.372138 0.50195,-1.087947 2.65308,-5.782434 4.78027,-10.432192 2.12718,-4.649759 3.91917,-8.506945 3.98218,-8.571525 0.063,-0.06458 0.11455,4.468935 0.11455,10.074476 v 10.191896 h -1.69082 -1.69082 v 1.409018 1.409017 h 5.63607 5.63607 V 39.7343 38.325282 h -1.83172 -1.83172 V 27.334944 16.344605 h 1.83172 1.83172 V 14.935588 13.52657 l -4.86111,9.98e-4 -4.86111,9.99e-4 -4.06761,9.228068 c -2.23719,5.075437 -4.1468,9.324278 -4.24359,9.441871 -0.0968,0.117591 -2.13412,-4.031309 -4.5274,-9.219783 l -4.35141,-9.433587 -4.86112,-0.0093 -4.86111,-0.0093 v 1.409018 1.409017 h 1.83173 1.83172 V 27.33491 38.325248 h -1.83172 -1.83173 v 1.409018 1.409017 h 5.35427 5.35427 z m 40.2979,0 v -1.409018 h -1.69082 -1.69082 l 0.002,-4.438406 c 0.002,-4.994737 0.22291,-6.146066 1.44855,-7.542017 1.20178,-1.368766 2.62805,-1.711341 4.66253,-1.119903 0.86415,0.251214 1.66357,0.353187 1.77646,0.226607 0.29744,-0.333443 0.83853,-2.692637 0.67737,-2.953401 -0.19236,-0.311282 -2.88702,-1.082338 -3.75652,-1.074904 -1.10141,0.0094 -3.03182,0.990617 -3.97014,2.017962 l -0.83983,0.919491 v -1.330919 -1.330919 h -3.80435 -3.80434 v 1.409017 1.409018 h 1.83172 1.83172 v 6.904187 6.904187 h -1.83172 -1.83172 v 1.409018 1.409017 h 5.49517 5.49516 z m 18.59904,0 v -1.409018 h -1.69082 c -0.92995,0 -1.69082,-0.09883 -1.69082,-0.219615 0,-0.12079 0.55013,-1.864449 1.22252,-3.874799 l 1.22254,-3.655184 h 4.90668 4.90671 l 1.18975,3.381643 c 0.65434,1.859903 1.26527,3.603563 1.35756,3.874799 0.14856,0.436646 -0.0443,0.493156 -1.68291,0.493156 h -1.85071 v 1.409018 1.409017 h 5.77697 5.77697 v -1.39557 -1.395573 l -1.74684,-0.08389 -1.74684,-0.0839 -3.87928,-10.567633 c -2.1336,-5.812198 -3.88374,-10.726147 -3.88923,-10.919887 -0.007,-0.236164 0.45441,-0.352255 1.39907,-0.352255 h 1.40902 V 14.935588 13.52657 h -6.76329 -6.76328 v 1.409018 1.409017 h 1.43917 c 1.03033,0 1.40355,0.100066 1.31377,0.352255 -0.069,0.19374 -1.8262,5.138316 -3.90496,10.987947 l -3.77955,10.635693 -1.76127,0.0024 -1.76127,0.0024 v 1.409018 1.409017 h 5.49517 5.49517 z M 91.17088,39.908045 c 1.933274,-0.88508 2.000335,-0.890406 2.187745,-0.173745 0.136213,0.52088 0.384383,0.563607 3.273608,0.563607 h 3.126221 v -1.409018 -1.409018 h -1.522322 -1.522323 l -0.105031,-6.129227 c -0.115421,-6.735763 -0.175276,-7.000857 -1.969195,-8.721628 -1.825549,-1.75111 -4.707472,-2.351822 -8.554403,-1.783091 -2.226194,0.32912 -5.207563,1.429777 -5.207563,1.92252 0,0.140438 0.143387,0.666661 0.318635,1.169383 0.363445,1.042579 0.315612,1.041999 4.023946,0.04884 2.732624,-0.731842 3.90467,-0.742486 5.431403,-0.04933 1.433872,0.651 2.006692,1.660795 2.247152,3.961409 l 0.178226,1.705156 -1.661277,-0.21862 c -2.487592,-0.327366 -6.310463,-0.236836 -7.532867,0.178381 -1.275683,0.433319 -2.868603,1.762127 -3.442318,2.871573 -0.227985,0.44087 -0.408311,1.562682 -0.408311,2.540093 0,2.753088 1.479821,4.753343 4.160559,5.623773 1.481388,0.481002 5.228563,0.109909 6.978115,-0.691065 z m 48.62582,0.667466 c 2.02192,-0.38345 3.65166,-1.208427 5.25517,-2.660183 l 1.32991,-1.204039 -0.78113,-1.18036 -0.78112,-1.180359 -1.32482,1.102942 c -1.92907,1.60599 -3.0592,2.094646 -5.1983,2.247699 -2.55014,0.182462 -4.0387,-0.396996 -5.66418,-2.204921 -2.59348,-2.884575 -2.54524,-7.236523 0.10963,-9.891399 1.48605,-1.486052 2.66617,-1.929437 5.14175,-1.931822 2.55942,-0.0025 4.34424,1.13885 5.26781,3.368538 0.33324,0.804512 0.4477,0.856944 1.87069,0.856944 h 1.51573 v -3.522545 -3.522544 h -1.69082 -1.69082 v 0.999851 0.99985 l -1.22778,-0.844734 c -1.67413,-1.151836 -3.43973,-1.548747 -6.02095,-1.35353 -3.80094,0.287464 -6.70926,2.224878 -8.27798,5.51447 -0.49852,1.045376 -0.62842,1.841503 -0.65001,3.98361 -0.032,3.175895 0.37052,4.743097 1.6823,6.549887 2.34071,3.223976 6.65088,4.723024 11.13492,3.872645 z m 21.99989,-0.796182 1.59128,-0.8196 0.30485,0.669089 c 0.29404,0.645338 0.41511,0.669089 3.41074,0.669089 h 3.10588 v -1.409018 -1.409018 h -1.5257 -1.52571 l -0.0978,-5.988325 c -0.0901,-5.519562 -0.14621,-6.079303 -0.71637,-7.150542 -1.20532,-2.264596 -3.09966,-3.379846 -6.19122,-3.644944 -3.17753,-0.272469 -8.31313,0.923229 -8.73969,2.034824 -0.26494,0.690419 0.76355,2.41273 1.30443,2.184396 1.86708,-0.788198 4.11708,-1.307458 5.79719,-1.33789 3.38071,-0.06123 4.64976,1.117801 4.64976,4.319936 v 1.717586 L 162.10749,29.4078 c -0.58122,-0.11391 -2.38829,-0.207342 -4.0157,-0.20763 -2.3745,-4.2e-4 -3.20942,0.11284 -4.22706,0.573411 -1.7966,0.813122 -2.99562,2.151948 -3.38652,3.781395 -0.38755,1.615476 -0.18858,2.787917 0.75012,4.42014 1.25303,2.178789 3.11941,2.962056 6.58165,2.762128 1.91728,-0.110712 2.71292,-0.301893 3.98661,-0.957915 z m 23.55709,0.703779 c 3.25081,-0.843249 4.76316,-2.833752 4.51375,-5.940853 -0.0784,-0.976683 -0.3598,-2.095936 -0.63104,-2.509897 -0.67675,-1.032855 -3.36249,-2.269499 -7.124,-3.280241 -3.54213,-0.951792 -4.11853,-1.229831 -4.5605,-2.199855 -1.02571,-2.251189 2.80108,-3.933432 6.21102,-2.730337 1.64542,0.580539 2.43269,1.380557 2.65532,2.698338 l 0.18526,1.096484 h 1.38424 1.38425 v -3.381642 -3.381643 h -1.4354 c -1.1984,0 -1.45973,0.09306 -1.58279,0.563607 -0.0811,0.309984 -0.1643,0.563543 -0.18497,0.563465 -0.0207,-7.8e-5 -0.71228,-0.256579 -1.5369,-0.570003 -4.55294,-1.730472 -9.41165,-0.514941 -10.62329,2.657687 -0.60625,1.587461 -0.45015,3.834365 0.341,4.908088 0.82498,1.119639 3.00902,2.197146 5.86374,2.892896 5.03572,1.227308 6.05877,1.817816 6.05877,3.497143 0,1.803573 -1.40881,2.681011 -4.28845,2.670945 -3.12185,-0.01091 -5.57467,-1.517707 -5.57467,-3.424575 V 33.534622 H 175 173.59098 v 3.381642 3.381643 h 1.4354 c 1.19099,0 1.46012,-0.0945 1.58054,-0.55501 0.13518,-0.516915 0.20068,-0.526287 0.95434,-0.136559 2.25332,1.165238 5.34103,1.512654 7.79242,0.87677 z m 50.79769,-0.657225 c 1.00745,-0.480678 2.26714,-1.247646 2.79931,-1.704373 l 0.9676,-0.830413 -0.63833,-1.032827 c -0.35107,-0.568054 -0.75674,-1.032827 -0.90147,-1.032827 -0.14474,0 -0.92697,0.438706 -1.73829,0.974902 -1.39089,0.919226 -4.112,1.843133 -5.42844,1.843133 -1.22692,0 -3.5574,-0.900306 -4.52137,-1.746689 -1.08288,-0.950779 -1.90943,-2.371447 -2.22186,-3.818931 l -0.19768,-0.915861 h 7.91289 7.91289 l -0.004,-1.197665 c -0.0106,-2.89004 -1.34721,-6.164866 -3.12754,-7.662915 -1.97385,-1.660883 -2.96179,-1.969389 -6.30848,-1.969969 -2.85637,-4.95e-4 -3.22772,0.0635 -4.72798,0.814776 -1.94301,0.972994 -3.94364,3.021681 -4.75608,4.870336 -0.46589,1.060105 -0.59194,1.93424 -0.60164,4.17211 -0.0106,2.457175 0.0833,3.039758 0.71142,4.411741 1.19113,2.601777 3.95625,4.831812 6.90735,5.570704 0.58185,0.145681 2.19922,0.234244 3.59414,0.196803 2.17215,-0.0583 2.79918,-0.193534 4.36796,-0.942035 z M 76.932367,34.661836 v -5.636071 h -1.690821 -1.690821 v 4.227053 4.227053 H 67.914654 62.278583 V 26.489533 15.499195 h 1.972625 1.972625 V 14.090177 12.681159 H 60.165056 54.10628 v 1.409018 1.409018 h 1.972625 1.972625 V 26.489533 37.479871 H 56.078905 54.10628 v 1.409018 1.409018 h 11.413044 11.413043 z m 35.225443,4.227053 v -1.409018 h -1.69643 -1.69642 l 0.076,-5.988325 0.0761,-5.988325 1.67236,-0.835366 c 1.87297,-0.935576 4.71391,-1.293366 5.77225,-0.726961 0.33932,0.181599 0.86331,0.734225 1.16442,1.228057 0.49441,0.810845 0.54758,1.451015 0.54853,6.604398 l 0.001,5.706522 h -1.54992 -1.54991 v 1.409018 1.409018 h 5.35426 5.35427 v -1.409018 -1.409018 h -1.83172 -1.83173 v -5.315804 c 0,-6.035006 -0.2593,-7.899512 -1.2858,-9.245314 -1.20673,-1.582103 -2.72448,-2.202974 -5.33658,-2.183042 -1.80464,0.01377 -2.61988,0.172278 -4.08615,0.794471 -1.00745,0.427499 -1.99024,0.844125 -2.18398,0.925835 -0.2381,0.10042 -0.35225,-0.13518 -0.35225,-0.726994 v -0.875561 h -3.80435 -3.80435 v 1.54992 1.549919 h 1.97263 1.97262 v 6.763285 6.763285 h -1.97262 -1.97263 v 1.409018 1.409018 h 5.49517 5.49517 z m 92.99517,0 v -1.409018 h -2.09307 c -1.92554,0 -2.13983,-0.05944 -2.67714,-0.742513 -0.54948,-0.698557 -0.58406,-1.098938 -0.58406,-6.763285 v -6.020772 h 2.53623 2.53624 v -1.549919 -1.54992 h -2.53624 -2.53623 v -3.646815 c 0,-2.272212 -0.11296,-3.716626 -0.29967,-3.832023 -0.16482,-0.101865 -1.0525,0.09633 -1.97263,0.440433 l -1.67295,0.625641 v 3.206382 3.206382 h -1.54992 -1.54992 v 1.54992 1.549919 h 1.51673 1.51673 l 0.11812,6.411031 c 0.10087,5.474318 0.19343,6.566856 0.63354,7.477538 0.85564,1.770535 2.42148,2.405103 6.00756,2.434597 l 2.60668,0.02144 z m 13.24477,0 v -1.409018 h -1.54992 -1.54992 V 24.798712 12.117552 h -3.80435 -3.80435 v 1.409018 1.409018 h 1.83172 1.83173 v 11.272141 11.272142 h -1.83173 -1.83172 v 1.409018 1.409018 h 5.35427 5.35427 z M 19.726248,37.546408 v -2.187895 l 3.804272,-3.79644 3.804273,-3.796443 3.663521,3.655389 3.663522,3.655389 v 2.328946 2.328946 h 2.536232 2.536232 v -2.536232 -2.536232 h -2.04699 -2.046993 l -3.796441,-3.804272 -3.796443,-3.804273 3.655389,-3.663521 3.65539,-3.663522 h 2.188044 2.188044 v -2.677134 -2.677133 h -2.536232 -2.536232 v 2.182155 2.182155 l -7.959096,7.962772 -7.959096,7.962773 h -2.185832 -2.185831 v 2.536232 2.536232 h 2.677133 2.677134 z"
     id="path19"
     transform="translate(-2057.2161,-893.95201)" />
  <path
     style="fill:#11181c;fill-opacity:1;stroke-width:0.281804"
     d="m 54.388084,39.029791 v -1.268116 h 1.972625 1.972624 V 26.489533 15.217391 h -1.972624 -1.972625 v -1.127214 -1.127214 h 5.776972 5.776973 v 1.127214 1.127214 h -1.972625 -1.972625 v 11.272142 11.272142 h 5.917875 5.917874 v -4.227053 -4.227054 h 1.409018 1.409018 v 5.49517 5.495169 h -11.13124 -11.13124 z"
     id="path20"
     transform="translate(-2057.2161,-893.95201)" />
  <path
     style="fill:#11181c;fill-opacity:1;stroke-width:0.281804"
     d="m 83.695652,40.130429 c -1.171472,-0.507422 -2.432682,-1.651525 -2.984095,-2.707014 -0.520169,-0.995682 -0.511191,-3.978823 0.01504,-4.996435 1.182914,-2.287502 3.903374,-3.290549 8.176646,-3.014766 1.553098,0.100231 3.190731,0.262761 3.639184,0.361177 l 0.81537,0.178938 -0.204982,-2.080242 c -0.11274,-1.144133 -0.401736,-2.41332 -0.642213,-2.820416 -1.087593,-1.841148 -3.575542,-2.323418 -7.142881,-1.384592 -1.307115,0.343997 -2.636979,0.685955 -2.955253,0.759905 -0.422307,0.09812 -0.669794,-0.06552 -0.915862,-0.605579 -0.496263,-1.089178 -0.458366,-1.156353 1.001385,-1.775061 2.930729,-1.242174 6.686437,-1.538704 9.389271,-0.741326 1.835993,0.541646 3.737042,2.345086 4.18949,3.974381 0.163306,0.588078 0.297628,3.637167 0.298492,6.775754 l 0.0016,5.706522 h 1.549919 1.54992 v 1.268116 1.268116 h -1.226778 c -0.674728,0 -1.999998,-0.08082 -2.945045,-0.179595 -1.598788,-0.167106 -1.730443,-0.235033 -1.893377,-0.976866 l -0.175111,-0.797272 -1.079547,0.714411 c -2.231073,1.476454 -6.328652,1.99553 -8.461141,1.071844 z M 89.89533,37.98645 c 0.542472,-0.158024 1.530257,-0.598546 2.195077,-0.978938 l 1.208765,-0.691623 -0.08155,-2.295691 -0.08155,-2.29569 -0.986313,-0.213273 c -0.542471,-0.1173 -2.06421,-0.232947 -3.381642,-0.256994 -3.743761,-0.06834 -5.391686,0.941734 -5.454164,3.343046 -0.08521,3.275024 2.464989,4.588282 6.581378,3.389163 z"
     id="path21"
     transform="translate(-2057.2161,-893.95201)" />
  <path
     style="fill:#11181c;fill-opacity:1;stroke-width:0.281804"
     d="m 101.44928,39.029791 v -1.268116 h 1.97262 1.97262 v -7.045089 -7.045088 h -1.97262 -1.97262 v -1.268116 -1.268116 h 3.52254 3.52254 v 0.986312 c 0,0.542472 0.0564,0.986312 0.12541,0.986312 0.069,0 1.05176,-0.47376 2.18397,-1.052801 1.90108,-0.972251 2.24344,-1.053104 4.47477,-1.056763 2.19756,-0.0036 2.53948,0.07253 3.77883,0.841449 2.37009,1.470447 2.52601,2.034236 2.63039,9.510869 l 0.0895,6.411031 h 1.81267 1.81268 v 1.268116 1.268116 h -5.07247 -5.07246 v -1.268116 -1.268116 h 1.54992 1.54992 v -5.955063 c 0,-5.471954 -0.0459,-6.029372 -0.5661,-6.871031 -0.31136,-0.503782 -0.94512,-1.072962 -1.40836,-1.264845 -1.33962,-0.554885 -3.84242,-0.231496 -5.99146,0.774161 l -1.89721,0.88781 v 6.214484 6.214484 h 1.69083 1.69082 v 1.268116 1.268116 h -5.21337 -5.21336 z"
     id="path22"
     transform="translate(-2057.2161,-893.95201)" />
  <path
     style="fill:#11181c;fill-opacity:1;stroke-width:0.281804"
     d="m 134.0605,40.197483 c -1.56461,-0.441546 -4.06138,-2.079408 -4.90094,-3.214968 -1.63114,-2.206245 -1.91296,-3.146999 -1.91927,-6.406831 -0.005,-2.696468 0.0803,-3.273516 0.65728,-4.434523 1.58321,-3.185888 4.54611,-5.055596 8.30484,-5.240694 2.82301,-0.139018 4.38057,0.305835 5.97031,1.705182 l 1.26528,1.113748 v -1.292066 -1.292065 h 1.40902 1.40902 v 3.381642 c 0,3.668166 0.062,3.549038 -1.66753,3.203129 -0.64863,-0.129726 -0.99345,-0.418542 -1.2617,-1.056763 -0.4997,-1.188906 -2.027,-2.627903 -3.20007,-3.015052 -0.52955,-0.174766 -1.88397,-0.271239 -3.00982,-0.214386 -1.67604,0.08464 -2.29603,0.257328 -3.42113,0.952925 -2.77822,1.717636 -3.86208,5.094112 -2.80734,8.745508 0.61618,2.133185 2.47988,4.058726 4.46682,4.615032 3.02992,0.848327 6.41339,-0.0331 8.48287,-2.209863 l 0.82284,-0.8655 0.70313,1.034736 0.70312,1.034736 -1.20243,1.067065 c -2.08429,1.849639 -3.89876,2.555049 -6.8657,2.669172 -1.62056,0.06233 -3.09716,-0.0427 -3.9386,-0.280164 z"
     id="path23"
     transform="translate(-2057.2161,-893.95201)" />
  <path
     style="fill:#11181c;fill-opacity:1;stroke-width:0.281804"
     d="m 153.63418,39.847958 c -3.46365,-1.726009 -4.14198,-6.333481 -1.29982,-8.828929 1.51317,-1.328583 3.65742,-1.822114 7.01976,-1.615707 1.5531,0.09534 3.12341,0.258133 3.48958,0.36176 l 0.66577,0.188411 -0.10536,-2.320179 c -0.10239,-2.254512 -0.13441,-2.346792 -1.13145,-3.260512 -1.67848,-1.538216 -4.65969,-1.58759 -8.46923,-0.140265 -1.45393,0.552378 -1.7203,0.439073 -2.04928,-0.871688 -0.16651,-0.663441 -0.0591,-0.782847 1.17501,-1.306025 1.83893,-0.779589 3.98684,-1.201362 6.11802,-1.201362 3.52682,0 5.94543,1.284066 7.10358,3.771369 0.63912,1.372612 0.67156,1.723359 0.67418,7.28942 l 0.003,5.847424 h 1.54992 1.54992 v 1.268116 1.268116 H 168.701 c -0.67473,0 -2.01318,-0.08219 -2.97433,-0.182656 -1.62897,-0.170261 -1.75824,-0.236033 -1.90488,-0.969257 l -0.15732,-0.786602 -1.06805,0.706802 c -2.54569,1.684656 -6.4642,2.026472 -8.962,0.781764 z m 6.71204,-1.864577 c 0.54247,-0.159712 1.46185,-0.551907 2.04307,-0.871544 l 1.05676,-0.58116 v -2.452343 -2.452343 l -1.22212,-0.18327 c -2.00273,-0.300327 -5.34012,-0.241392 -6.24567,0.110294 -2.06925,0.803628 -2.91322,2.918592 -1.96338,4.920222 0.91007,1.917819 3.14004,2.449711 6.33134,1.510144 z"
     id="path24"
     transform="translate(-2057.2161,-893.95201)" />
  <path
     style="fill:#11181c;fill-opacity:1;stroke-width:0.281804"
     d="m 179.29685,40.049985 c -0.81407,-0.28123 -1.71174,-0.720931 -1.99482,-0.977113 -0.69749,-0.631219 -0.89301,-0.586664 -0.89301,0.203497 0,0.524154 -0.19096,0.707475 -0.88064,0.84541 -1.71189,0.342379 -1.65559,0.446585 -1.65559,-3.064613 V 33.816425 H 175 c 1.10627,0 1.12721,0.01884 1.12721,1.014152 0,1.930314 2.66338,3.494705 5.94973,3.494705 2.9522,0 4.47701,-1.015975 4.47701,-2.983009 0,-1.797091 -0.92763,-2.43246 -4.89998,-3.356215 -6.02808,-1.401805 -7.77908,-2.702449 -7.77908,-5.778329 0,-3.566136 2.75035,-5.564197 7.2891,-5.295353 1.92433,0.113984 2.93399,0.420192 5.1786,1.570556 0.11625,0.05957 0.21136,-0.219278 0.21136,-0.619674 0,-0.674937 0.0924,-0.727992 1.26811,-0.727992 h 1.26812 v 3.099839 3.099839 h -1.12185 c -1.16584,0 -1.20963,-0.05406 -1.47581,-1.821813 -0.19973,-1.32642 -3.26241,-2.538314 -5.92759,-2.345532 -2.54108,0.183805 -3.98152,1.697913 -3.30589,3.474959 0.38598,1.0152 1.40373,1.527006 4.71099,2.369063 3.74879,0.95447 5.68851,1.779081 6.72172,2.857518 0.66728,0.696493 0.81377,1.123878 0.91155,2.659529 0.13844,2.174096 -0.22313,3.201806 -1.53019,4.349421 -1.87257,1.644143 -5.86578,2.177356 -8.77626,1.171896 z"
     id="path26"
     transform="translate(-2057.2161,-893.95201)" />
  <path
     style="fill:#11181c;fill-opacity:1;stroke-width:0.281804"
     d="m 201.69377,40.022461 c -3.05596,-0.209383 -3.84862,-0.58338 -4.854,-2.290243 -0.51191,-0.869098 -0.57178,-1.557767 -0.65279,-7.508788 l -0.0892,-6.551932 h -1.53118 -1.53118 v -1.268116 -1.268116 h 1.54992 1.54992 v -3.20317 -3.203169 l 1.44659,-0.601178 c 0.79563,-0.330649 1.5565,-0.601179 1.69082,-0.601179 0.13433,0 0.24423,1.711957 0.24423,3.804348 v 3.804348 h 2.53623 2.53623 v 1.268116 1.268116 h -2.53623 -2.53623 v 6.353389 6.353388 l 0.6917,0.6917 c 0.60349,0.603495 0.94488,0.6917 2.67713,0.6917 h 1.98544 v 1.268116 c 0,0.697463 -0.0951,1.248607 -0.21136,1.224764 -0.11624,-0.02384 -1.45096,-0.128286 -2.96605,-0.232094 z"
     id="path28"
     transform="translate(-2057.2161,-893.95201)" />
  <path
     style="fill:#11181c;fill-opacity:1;stroke-width:0.281804"
     d="m 207.97101,39.029791 v -1.268116 h 1.83173 1.83172 V 26.207729 14.653784 h -1.83172 -1.83173 V 13.52657 12.399356 h 3.52255 3.52254 v 12.681159 12.68116 h 1.54992 1.54992 v 1.268116 1.268116 h -5.07246 -5.07247 z"
     id="path29"
     transform="translate(-2057.2161,-893.95201)" />
  <path
     style="fill:#11181c;fill-opacity:1;stroke-width:0.281804"
     d="m 227.5913,40.133746 c -2.6858,-0.854581 -5.02353,-2.880912 -6.15026,-5.331008 -0.5392,-1.172504 -0.64783,-1.882047 -0.64719,-4.227054 6.7e-4,-2.420423 0.0984,-3.016841 0.69246,-4.227053 0.88132,-1.795328 2.85524,-3.767749 4.66103,-4.657493 1.238,-0.609983 1.78526,-0.694399 4.50886,-0.69551 2.90769,-0.0012 3.19299,0.05034 4.60262,0.83117 2.66617,1.476871 4.25087,4.130432 4.49373,7.524699 l 0.138,1.928696 h -7.94114 -7.94113 l 0.19209,1.056764 c 0.31613,1.739073 1.45434,3.679702 2.67817,4.566246 2.74961,1.991804 7.08789,1.686879 10.31079,-0.724716 1.1403,-0.85325 1.25778,-0.842713 1.83067,0.164192 0.47104,0.82789 0.46863,0.835974 -0.50356,1.689564 -0.53727,0.471732 -1.63794,1.199074 -2.44592,1.616314 -1.25731,0.64927 -1.87527,0.770424 -4.28711,0.84051 -1.96687,0.05716 -3.23306,-0.05016 -4.19211,-0.355321 z m 8.9496,-11.742039 c -0.44762,-2.562583 -1.64109,-4.213944 -3.54366,-4.903261 -3.84595,-1.393415 -7.94365,0.887049 -8.81052,4.903261 l -0.19769,0.915861 h 6.35593 6.35593 z"
     id="path30"
     transform="translate(-2057.2161,-893.95201)" />
  <path
     style="fill:#11181c;fill-opacity:1;stroke-width:0.281804"
     d="m 255.87762,39.7343 v -1.127215 h 1.83172 1.83172 V 27.334944 16.062802 h -1.83172 -1.83172 V 14.794686 13.52657 h 1.22387 c 0.67313,0 2.74855,0.08198 4.61205,0.182181 l 3.38818,0.182181 4.43663,9.537532 c 2.44015,5.245643 4.5178,9.484523 4.61702,9.419733 0.0992,-0.06479 2.08255,-4.435825 4.40743,-9.71341 l 4.22706,-9.59561 4.5793,-0.0063 4.57931,-0.0063 v 1.268116 1.268116 h -1.83172 -1.83173 v 11.272142 11.272141 h 1.83173 1.83172 v 1.127215 1.127214 h -5.35427 -5.35426 V 39.7343 38.607085 h 1.69082 1.69082 V 27.56978 c 0,-6.070518 -0.0499,-10.984467 -0.11099,-10.919887 -0.061,0.06458 -2.34823,5.06307 -5.08264,11.107756 -2.7344,6.044686 -5.16334,11.180556 -5.39762,11.413043 -0.37898,0.376066 -0.48584,0.344972 -0.96851,-0.281803 -0.2984,-0.38748 -2.78109,-5.555052 -5.5171,-11.483494 -2.73601,-5.928443 -5.02205,-10.778986 -5.08009,-10.778986 -0.058,0 -0.10553,4.945652 -0.10553,10.990338 v 10.990338 h 1.83172 1.83172 v 1.127215 1.127214 h -5.07246 -5.07246 z"
     id="path31"
     transform="translate(-2057.2161,-893.95201)" />
  <path
     style="fill:#11181c;fill-opacity:1;stroke-width:0.281804"
     d="m 245.45089,38.747987 v -2.113526 h 2.11352 2.11353 v 2.113526 2.113527 h -2.11353 -2.11352 z"
     id="path32"
     transform="translate(-2057.2161,-893.95201)" />
  <path
     style="fill:#11181c;fill-opacity:1;stroke-width:0.281804"
     d="m 295.89372,39.7343 v -1.127215 h 1.83172 1.83173 v -7.18599 -7.18599 h -1.83173 -1.83172 V 23.10789 21.980676 h 3.52254 3.52255 l 0.0166,1.761272 c 0.014,1.492352 0.0678,1.675768 0.35225,1.201267 0.75306,-1.256287 2.38466,-2.638771 3.5134,-2.976948 0.93663,-0.280621 1.50718,-0.285615 2.67016,-0.02337 2.2191,0.500393 2.29379,0.581747 1.87406,2.041343 -0.19568,0.680447 -0.3774,1.271101 -0.40383,1.312565 -0.0264,0.04146 -0.84334,-0.128357 -1.81537,-0.377378 -1.63705,-0.419394 -1.8586,-0.417903 -3.00581,0.02022 -1.41313,0.539679 -2.44332,1.74495 -2.89038,3.381607 -0.16935,0.619968 -0.30862,3.187903 -0.30948,5.706522 l -0.002,4.579307 h 1.69082 1.69082 v 1.127215 1.127214 h -5.21336 -5.21337 z"
     id="path33"
     transform="translate(-2057.2161,-893.95201)" />
  <path
     style="fill:#11181c;fill-opacity:1;stroke-width:0.281804"
     d="m 314.49275,39.747746 v -1.113767 l 1.72587,-0.0839 1.72586,-0.0839 3.77922,-10.567633 c 2.07856,-5.812198 3.8519,-10.852959 3.94075,-11.201691 0.15182,-0.595877 0.0749,-0.634058 -1.27802,-0.634058 h -1.43957 V 14.794686 13.52657 h 6.48148 6.48148 v 1.268116 1.268116 h -1.54992 c -0.85245,0 -1.54992,0.04302 -1.54992,0.0956 0,0.05258 1.72504,4.776314 3.83341,10.497182 2.10838,5.720867 3.95955,10.750309 4.11372,11.176537 0.26268,0.726215 0.38493,0.774959 1.94357,0.774959 h 1.66325 v 1.127215 1.127214 h -5.49517 -5.49517 V 39.7343 38.607085 h 1.83172 c 1.00745,0 1.83164,-0.09511 1.83153,-0.211352 -10e-5,-0.116244 -0.62036,-1.986715 -1.37834,-4.156603 l -1.37815,-3.945249 -5.06225,-0.07665 -5.06225,-0.07665 -1.35098,3.880998 c -0.74303,2.134548 -1.40906,4.039512 -1.48005,4.233252 -0.095,0.259285 0.36232,0.352254 1.73279,0.352254 h 1.86187 v 1.127215 1.127214 h -5.21336 -5.21337 z m 18.86476,-12.20145 c -0.0365,-0.798637 -3.81263,-11.303823 -4.09736,-11.398695 -0.25302,-0.08431 -4.34382,10.789276 -4.34136,11.539597 3.8e-4,0.116244 1.90287,0.211353 4.22775,0.211353 3.20235,0 4.22315,-0.08539 4.21097,-0.352255 z"
     id="path34"
     transform="translate(-2057.2161,-893.95201)" />
</svg>
